<svg xmlns="http://www.w3.org/2000/svg" xmlns:v="https://vecta.io/nano" width="256" height="72" fill="none">
  <script xmlns="" />
  <path fill-rule="evenodd"
    d="M57.949 34.832c1.161-11.019 10.462-19.218 21.322-19.288h.284c.708.005 1.42.044 2.137.119 11.87 1.243 20.486 11.842 19.236 23.673-1.244 11.829-11.882 20.411-23.752 19.169S56.702 46.662 57.949 34.832zm16.658-2.646v-9.647h9.675l-.003 9.647 9.68.002v9.641h-9.68v9.647h-9.672v-9.647H64.93v-9.643h9.677z"
    fill="#FEFDF5" />
  <path opacity=".057"
    d="M78.924 13a23.1 23.1 0 0 0-8.144 1.542C61.653 18.049 56.04 26.708 56 35.904v.212c.013 2.711.512 5.466 1.549 8.147C61.047 53.315 69.661 58.9 78.833 59h.499c2.675-.029 5.391-.528 8.034-1.542 9.147-3.512 14.765-12.199 14.784-21.414v-.033a22.88 22.88 0 0 0-1.548-8.274C97.093 18.649 88.424 13.056 79.211 13h-.287z"
    fill="url(#A)" />
  <path
    d="M117.931 22.706l-4.756 12.409h3.96l.591-1.856h4.513l.581 1.856h3.963l-4.641-12.409h-4.211zm45.588.015v2.4h3.618v-2.4h-3.618zm9.847 2.864c-1.559 0-2.832.547-3.684 1.431-.805.825-1.268 2.113-1.268 3.468 0 2.944 1.86 4.968 4.737 4.968 2.036 0 3.247-.989 3.764-1.518.404-.401.663-.849.877-1.297l-2.614-1.428c-.189.598-.631 1.592-1.725 1.592-.77 0-1.687-.385-1.687-2.213 0-1.591.679-2.579 1.777-2.579.784 0 1.342.47 1.63 1.448l2.614-1.476a4.86 4.86 0 0 0-.718-.912c-1.37-1.386-3.136-1.486-3.703-1.486h0zm-23.724.052c-2.93 0-4.897 2.036-4.897 4.881 0 1.291.43 2.475 1.216 3.341a4.92 4.92 0 0 0 3.698 1.61c2.056 0 3.649-.986 4.726-2.544l-2.767-1.148c-.391.843-.999 1.252-1.764 1.252-.329 0-.802-.08-1.182-.459-.434-.434-.457-.89-.476-1.297l-.005-.139h6.38c-.033-1.361-.087-2.814-1.35-4.057-1.13-1.091-2.569-1.441-3.579-1.441h0zm34.24.077c-1.38 0-2.432.27-3.219.676-1.187.623-1.446 1.56-1.578 2.35l3.153-.085c.147-.723.494-.961 1.31-.961 1.099 0 1.335.462 1.354 1.155l.004.097-.091.025c-.556.161-.945.25-1.953.39-1.528.2-2.534.331-3.348 1.158-.491.49-.741 1.116-.741 1.863 0 1.358.834 2.934 3.174 2.934 1.647 0 2.475-.574 2.92-.879l.212-.147v.83h3.227c-.171-.286-.21-.512-.21-1.016v-5.073c0-.531 0-1.333-.52-1.995-.622-.798-1.866-1.322-3.694-1.322h0zm12.315.062c-1.912 0-2.492.923-2.806 1.366l-.24.338v-1.473h-3.189v9.107h3.383v-4.859c0-.401.016-1.615 1.369-1.615s1.308 1.084 1.308 1.491v4.983h3.385v-5.756c0-.49-.001-1.917-.88-2.772-.565-.528-1.334-.81-2.33-.81h0zm-62.316.027c-1.881 0-2.358.892-2.647 1.356l-.244.398v-1.525h-3.225v9.09h3.385v-4.951l.005-.059c.014-.308.036-.693.383-1.041.257-.258.574-.405 1-.405.537 0 1.122.26 1.288.996a2.8 2.8 0 0 1 .053.542v4.911h3.384v-4.859c0-.193 0-.592.189-.947.23-.431.593-.651 1.209-.651 1.391 0 1.341 1.14 1.341 1.687v4.77h3.382l.002-5.875h-.002c-.018-.839-.036-1.788-.828-2.561-.555-.556-1.449-.875-2.449-.875-2.169 0-2.773 1.147-2.944 1.53l-.098.236-.12-.229c-.236-.451-.555-.972-1.707-1.331-.539-.17-1.033-.206-1.353-.206h-.004zm-13.861.013l1.448 4.789h-2.934l1.486-4.789zm42.276.002c-1.264 0-2.025.236-2.969 1.076l-.204.181v-1.115-.005h-3.245v9.159h3.369v-4.298c.016-.574.06-2.099 2.306-2.099l.742.025v-2.924h.001zm1.223.194v9.072h3.619v-9.072h-3.619zm-13.787 1.804c.536 0 1.159.316 1.333 1.023.026.102.033.139.042.236l.028.276h-2.933l.037-.159c.084-.394.309-1.376 1.493-1.376zm35.155 3.008v.174c0 .318 0 .637-.186 1.046-.349.763-1.255 1.058-1.787 1.058-.747 0-1.023-.409-1.023-.725 0-.142.059-.592.819-.894v-.005h.004.003c.285-.095.569-.16.844-.224l.095-.022 1.03-.335.201-.072zm-28.381 7.91c-1.919 0-3.547.741-4.708 2.094-1.027 1.197-1.617 2.948-1.617 4.633 0 1.669.543 3.323 1.527 4.469 1.138 1.324 2.798 2.047 4.798 2.047 1.881 0 3.567-.663 4.743-1.819.552-.549.941-1.255 1.231-1.799l-3.163-1.525c-.598 1.638-1.777 2.104-2.631 2.104-.945 0-1.668-.391-2.146-1.16-.394-.634-.606-1.515-.606-2.544 0-.482.001-1.949.972-2.879a2.45 2.45 0 0 1 1.76-.706c1.678 0 2.369 1.4 2.681 2.126l3.111-1.548c-.24-.437-.574-1.01-1.054-1.503-1.235-1.267-2.977-1.992-4.898-1.992h0zm-43.33.442V51.59h3.699v-4.494h1.361l2.487 4.494h4.077l-2.988-4.941-.075-.122.217-.087c.548-.219 1.025-.404 1.478-.889.607-.617.917-1.475.917-2.454 0-1.253-.546-2.895-2.074-3.545-.804-.336-2.036-.375-3.02-.375h-6.079 0zm28.833.015v3.813.273l-.241-.214c-.369-.332-.921-.835-2.209-.835-1.92 0-3.86 1.506-3.86 4.603 0 2.954 1.563 4.983 3.982 4.983.506 0 .941-.072 1.334-.221.493-.188.658-.372.885-.631l.214-.246v.87h3.277V39.191h-3.382zm-25.133 2.459h1.744c.611 0 2.044.008 2.044 1.505 0 1.528-1.473 1.513-2.026 1.513h-1.762v-3.018zm58.843.457c-1.64-.008-3 .5-3.935 1.428-.873.863-1.333 2.164-1.333 3.577 0 1.272.423 2.522 1.188 3.344.887.954 2.23 1.483 3.886 1.483 1.632 0 2.995-.485 3.932-1.356.91-.844 1.388-2.126 1.388-3.525 0-1.367-.532-2.825-1.388-3.647-.4-.377-1.567-1.283-3.738-1.304h0zm10.238.01c-1.369 0-2.423.373-3.138 1.048a3.04 3.04 0 0 0-.879 2.084c0 1.846 1.58 2.357 2.431 2.603.819.24 1.567.361 1.887.415.356.051 1.022.14 1.022.671 0 .472-.542.683-1.076.683-.49 0-.978-.1-1.492-.308-.667-.281-1.097-.641-1.414-.951l-1.872 1.712c.755.607 2.27 1.863 4.815 1.863 2.91 0 4.213-1.644 4.213-3.368 0-.987-.485-1.838-1.365-2.31-.428-.223-.811-.309-2.42-.673l-.069-.017c-1.2-.296-1.488-.357-1.488-.735 0-.226.117-.599.899-.599.964 0 1.827.522 2.436.902l1.817-1.652c-.439-.329-1.124-.849-2.273-1.123a8.97 8.97 0 0 0-2.034-.243h0zm9.577 0c-1.37 0-2.426.373-3.14 1.048-.557.542-.877 1.364-.877 2.084 0 1.846 1.581 2.357 2.43 2.603.818.24 1.567.361 1.886.415.358.051 1.018.14 1.018.671 0 .472-.536.683-1.071.683-.489 0-.979-.1-1.493-.308-.665-.281-1.095-.641-1.416-.951l-1.87 1.712c.755.607 2.267 1.863 4.813 1.863 2.911 0 4.212-1.644 4.212-3.368 0-.987-.483-1.838-1.361-2.31-.429-.223-.812-.309-2.42-.673l-.071-.017c-1.2-.296-1.487-.357-1.487-.735 0-.226.119-.599.903-.599.962 0 1.82.522 2.432.902l1.819-1.652c-.44-.329-1.127-.849-2.275-1.123-.71-.164-1.373-.243-2.032-.243h0zm-65.712.01c-2.928 0-4.897 2.032-4.897 4.881 0 1.29.432 2.473 1.216 3.341.885.971 2.163 1.607 3.699 1.607 2.056 0 3.65-.983 4.725-2.541l-2.766-1.148c-.391.841-.998 1.252-1.765 1.252-.328 0-.799-.08-1.179-.457-.437-.436-.458-.893-.476-1.302l-.005-.137h6.378c-.032-1.361-.086-2.816-1.351-4.059-1.126-1.091-2.568-1.438-3.579-1.438h0zm39.981.174c-1.262.008-2.022.236-2.966 1.076l-.204.181v-1.115h-3.243v9.162h3.367v-4.3-.007c.018-.572.061-2.099 2.306-2.099a12.51 12.51 0 0 1 .74.027v-2.924h0zm-39.894 2.005c.539 0 1.161.316 1.338 1.023a1.29 1.29 0 0 1 .038.234l.03.276h-2.931l.032-.159c.088-.393.311-1.374 1.493-1.374zm45.702.224c.486-.014.886.124 1.189.415.416.404.628 1.084.628 2.027 0 2.119-.978 2.564-1.797 2.564-1.577 0-1.814-1.583-1.814-2.529 0-.906.232-2.435 1.794-2.477h0zm-35.048.159c.476 0 1.127.3 1.385 1.138.123.366.147.735.147 1.18 0 .474-.001 1.349-.513 1.878-.282.278-.648.44-1.002.44-.388 0-.755-.156-1.007-.425-.352-.394-.529-1.009-.529-1.879 0-.415.033-.764.107-1.098v-.003l.002-.003c.319-1.14 1.17-1.232 1.423-1.232l-.013.003z"
    fill="#FEFDF5" />
  <defs>
    <radialGradient id="A" cx="0" cy="0" r="1" gradientUnits="userSpaceOnUse"
      gradientTransform="translate(79.0243 35.7353) rotate(-21.0015) scale(23.4016 23.4529)">
      <stop stop-color="#fff" />
      <stop offset=".649" stop-color="#fff" />
      <stop offset=".798" stop-color="#f1f1f1" />
      <stop offset=".914" stop-color="#e4e4e4" />
      <stop offset=".939" stop-color="#cac9ca" />
      <stop offset=".954" stop-color="#d1d0d0" />
      <stop offset=".957" stop-color="#d1d0d0" />
      <stop offset=".98" stop-color="#fff" />
    </radialGradient>
  </defs>
</svg>
