<svg xmlns="http://www.w3.org/2000/svg" width="256" height="72" viewBox="0 0 256 72" fill="none">
  <script xmlns="" />
  <path fill-rule="evenodd" clip-rule="evenodd"
    d="M19.6519 44.84H33.3022L35.3786 50.377H40.9156L30.3029 23.1917C29.9184 22.1535 28.8802 21.4614 27.7651 21.4614H23.3048L12 50.377H17.537L19.6519 44.84ZM31.8795 40.3796H21.0746L26.4962 25.768L31.8795 40.3796ZM57.7574 39.6106H62.7561L69.139 50.4155H75.0221L67.9855 39.0722C71.4077 38.4955 74.7914 35.7269 74.7914 30.5744C74.7914 25.2297 71.0616 21.4999 65.3708 21.4999H52.7202V50.4155H57.7574V39.6106ZM57.7574 25.9603H64.6787C67.5241 25.9603 69.6005 27.729 69.6005 30.536C69.6005 33.3429 67.5241 35.1502 64.6787 35.1502H57.7574V25.9603ZM85.3271 25.9603H94.0172V50.4155H99.0928V25.9603H107.783V21.4999H88.0572C86.5576 21.4999 85.3271 22.7688 85.3271 24.2684V25.9603ZM121.741 21.4614H119.434V50.377H124.471V24.2299C124.471 22.6919 123.24 21.4614 121.741 21.4614ZM151.118 21C142.851 21 136.237 27.0753 136.237 35.9577C136.237 44.84 142.851 50.9153 151.118 50.9153C157.155 50.9153 160.692 47.8776 162.884 44.417L158.577 42.2253C157.039 44.84 154.194 46.4549 151.118 46.4165C145.619 46.4165 141.39 42.033 141.39 35.9577C141.39 29.8823 145.619 25.4988 151.118 25.4988C154.155 25.4604 157.001 27.0754 158.577 29.6901L162.884 27.4983C160.731 24.0377 157.155 21 151.118 21ZM179.803 21.4614H177.496C175.957 21.4999 174.727 22.7303 174.765 24.2299V50.377H192.492V45.9166H179.803V21.4614ZM224.176 21.4614H207.18C205.642 21.4999 204.412 22.7303 204.45 24.2299V50.377H224.176V45.9166H209.487V37.9187H223.868V33.4199H209.487V25.9218H224.176V21.4614ZM242.555 46.1471C241.863 44.263 239.787 43.2633 237.903 43.917C236.826 44.263 236.019 45.109 235.673 46.1856C235.403 46.9546 235.403 47.8006 235.673 48.5696C236.365 50.4537 238.441 51.4535 240.325 50.7998C242.209 50.1077 243.209 48.0313 242.555 46.1471Z"
    fill="#FEFDF5" />
</svg>
