<svg xmlns="http://www.w3.org/2000/svg" xmlns:v="https://vecta.io/nano" width="256" height="72" fill="none">
  <script xmlns="" />
  <g clip-path="url(#A)" fill="#FEFDF5">
    <path
      d="M13.675 29.172c-6.35 0-11.43 5.093-11.43 11.401s5.105 11.401 11.43 11.401 11.43-5.093 11.43-11.401-5.207-11.401-11.43-11.401zm0 19.357c-4.343 0-7.823-3.471-7.823-7.804s3.48-7.804 7.823-7.804 7.823 3.471 7.823 7.804-3.454 7.804-7.823 7.804zm11.684-25.058C22.006 21.368 17.917 20 13.675 20s-8.331 1.368-11.684 3.471c-.991.735-1.245 2.103-.737 3.091l1.626 2.964c.381.608 1.245.862 1.753.38.991-.735 1.981-1.495 3.099-1.976.254-.127.381-.38.381-.608v-1.748c0-.253.127-.507.381-.507 1.626-.608 3.353-.861 5.105-.861h.127.127c1.753 0 3.48.253 5.105.861.254 0 .381.253.381.507v1.748c0 .253.127.507.381.608 1.118.507 2.108 1.242 3.099 1.976.508.507 1.372.253 1.753-.38l1.626-2.964c.406-.988.178-2.356-.838-3.091zM13.675 44.804a4.21 4.21 0 0 0 4.216-4.206c0-2.323-1.888-4.206-4.216-4.206s-4.216 1.883-4.216 4.206 1.888 4.206 4.216 4.206zm31.953.507c-1.118.735-3.099 1.115-4.978 1.115-4.47 0-8.458-2.736-8.458-9.805.127-7.322 4.597-9.678 8.585-9.678 2.108 0 3.607.38 4.597.735l-.737 3.091c-.864-.38-1.854-.608-3.48-.608-2.972 0-4.978 2.103-4.978 6.461 0 3.851 1.753 6.461 5.232 6.461 1.626 0 2.616-.38 3.48-.861l.737 3.091zm1.879-11.908c1.372-.608 3.48-.988 5.588-.988 3.734 0 4.851 1.85 4.851 4.713l-.254 5.321c0 1.368.127 2.61.508 3.724h-2.87l-.508-1.85h-.127c-.737 1.115-1.981 2.103-3.988 2.103-2.489 0-4.115-1.621-4.115-3.978 0-2.964 2.616-4.333 6.833-4.333h.991v-.861c0-1.368-.508-1.85-2.108-1.85-1.372 0-3.099.38-4.115.735l-.686-2.736zm6.96 8.538v-1.748h-.991c-1.854 0-3.226.507-3.226 1.748 0 .988.61 1.621 1.626 1.621 1.473-.127 2.21-.861 2.591-1.621zm10.058-.354c0 1.242.381 1.85.991 1.85.508 0 .737 0 1.372-.253l.381 2.736a8.87 8.87 0 0 1-3.099.608c-1.981 0-3.099-.861-3.099-3.091V27.322h3.48l-.025 14.264zm7.849 0c0 1.242.381 1.85.991 1.85.508 0 .737 0 1.372-.253l.381 2.736a8.87 8.87 0 0 1-3.099.608c-1.981 0-3.099-.861-3.099-3.091V27.322h3.454v14.264zm17.78-11.047h-5.461v15.506h-3.734V30.54h-5.461v-3.218h14.656v3.218zm6.452 5.346c-.61-.127-1.118-.253-1.499-.253-1.245 0-2.108.735-2.362 1.748v8.69h-3.48V32.643h2.743l.381 1.748h.127c.61-1.368 1.626-2.103 3.099-2.103.508 0 .991.127 1.626.253l-.635 3.345zm1.854-2.483c1.372-.608 3.48-.988 5.588-.988 3.734 0 4.851 1.85 4.851 4.713l-.254 5.321c0 1.368.127 2.61.508 3.724h-2.87l-.381-1.85h-.127c-.737 1.115-1.981 2.103-3.988 2.103-2.489 0-4.115-1.621-4.115-3.978 0-2.964 2.617-4.333 6.833-4.333h.991v-.861c0-1.368-.508-1.85-2.109-1.85-1.371 0-3.098.38-4.114.735l-.813-2.736zm7.086 8.538v-1.748h-.99c-1.854 0-3.226.507-3.226 1.748 0 .988.61 1.621 1.626 1.621 1.371-.127 2.235-.861 2.59-1.621zm15.926 3.244c-1.117.735-2.743 1.241-4.343 1.241-4.344 0-5.842-2.863-5.842-7.069 0-4.459 2.108-7.069 5.969-7.069 1.981 0 2.972.38 3.988.861l-.864 2.863c-.864-.38-1.626-.608-2.616-.608-1.854 0-2.972 1.242-2.972 3.978 0 2.23.991 3.978 3.099 3.978 1.117 0 1.981-.38 2.616-.735l.965 2.559zm6.579-4.713h-.864v5.574h-3.48V27.322h3.48v11.047l.737-.38 3.099-5.321h3.86l-3.225 5.067-1.372.988 1.499.988 3.606 6.208h-3.987l-3.353-5.447zm10.693-13.53c1.372 0 2.235.861 2.235 1.849s-.863 1.85-2.235 1.85-2.235-.735-2.235-1.748.889-1.951 2.235-1.951zm-1.727 5.701h3.48v13.403h-3.48V32.643zm15.291 13.403v-7.702c0-2.23-.61-3.091-2.108-3.091-1.372 0-2.236.862-2.617 1.976v8.69h-3.606V32.643h2.743l.381 1.748h.127c.736-1.115 2.108-2.103 4.216-2.103 2.743 0 4.115 1.241 4.115 5.447v8.31h-3.251zm17.78 0c0 3.851-2.235 5.701-5.969 5.701-2.616 0-3.988-.507-4.725-.861l.737-2.736a7.91 7.91 0 0 0 3.48.735c2.489 0 3.099-1.115 3.099-2.964v-.861h-.102c-.61.861-1.753 1.242-3.353 1.242-3.48 0-5.105-2.103-5.105-6.689 0-4.713 2.362-7.322 6.705-7.322a19.46 19.46 0 0 1 5.334.735l-.101 13.023zm-3.48-4.333v-6.081c-.508-.253-1.245-.38-2.108-.38-1.753 0-2.87 1.242-2.87 4.206 0 2.61.863 3.978 2.489 3.978 1.371 0 2.108-.608 2.489-1.723zm21.26-8.563l-.864 2.483-3.988 6.942h-1.117l-4.217-7.069-.736-1.976v12.39h-3.48V27.323h3.353l5.105 8.564.864 2.103h.127l.736-2.23 4.725-8.564h3.353V45.92h-3.734V33.15h-.127zm17.526 11.782c-1.118.861-3.099 1.495-5.106 1.495-4.343 0-6.223-2.736-6.223-7.069 0-4.713 2.363-7.069 6.477-7.069 2.744 0 5.334 1.241 5.334 5.447 0 .735-.127 1.622-.254 2.61h-8.204c.127 2.23 1.118 3.471 3.48 3.471 1.499 0 2.743-.608 3.353-.988l1.143 2.103zm-7.823-6.815h4.978v-.507c0-1.622-.737-2.61-2.235-2.61-1.753 0-2.616 1.242-2.743 3.116zm9.321-5.474h1.855V30.16l3.479-.988v3.471h3.226v2.964h-3.226V40.7c0 1.849.254 2.61 1.372 2.61.737 0 1.118-.127 1.854-.507l.61 2.736c-.991.507-2.362.861-3.734.861-2.489 0-3.607-1.242-3.607-4.105v-6.663h-1.854l.025-2.99zm18.263 3.243c-.508-.253-.991-.253-1.499-.253-1.244 0-2.108.735-2.362 1.748v8.69h-3.48V32.643h2.744l.381 1.748h.127c.609-1.368 1.625-2.103 3.098-2.103.508 0 .991.127 1.626.253l-.635 3.345zm3.861-8.944c1.371 0 2.235.861 2.235 1.849s-.864 1.85-2.235 1.85-2.235-.735-2.235-1.85.863-1.849 2.235-1.849zm-1.626 5.701h3.48v13.403h-3.48V32.643zm16.536 12.542c-1.118.735-2.744 1.241-4.344 1.241-4.343 0-5.842-2.863-5.842-7.069 0-4.459 2.108-7.069 5.969-7.069 1.981 0 2.972.38 3.988.861l-.889 2.838c-.864-.38-1.626-.608-2.616-.608-1.854 0-2.972 1.241-2.972 3.978 0 2.23.991 3.978 3.099 3.978 1.117 0 1.981-.38 2.616-.735l.991 2.584zm1.498-8.817c0-2.61 1.626-4.105 4.598-4.105 1.981 0 3.733.507 4.724.988l-.737 2.483c-.863-.38-2.235-.735-3.479-.735-.991 0-1.626.38-1.626 1.242 0 1.976 6.096 1.115 6.096 5.827 0 2.736-1.753 4.333-5.232 4.333-1.855 0-3.734-.608-4.725-1.241l.991-2.61c.863.507 2.362.988 3.734.988.99 0 1.752-.38 1.752-1.242 0-2.078-6.096-1.089-6.096-5.929z" />
  </g>
  <defs>
    <clipPath id="A">
      <path fill="#fff" transform="translate(1 20)" d="M0 0h254v32H0z" />
    </clipPath>
  </defs>
</svg>
