<svg xmlns="http://www.w3.org/2000/svg" xmlns:v="https://vecta.io/nano" width="256" height="72" fill="#FEFDF5">
  <script xmlns="" />
  <path
    d="M111.134 44.539h-4.391V61.51h4.391V44.539zm35.418 4.86c-1.136-.597-2.406-.908-3.697-.904-2.836 0-4.809 1.927-4.809 4.525 0 2.521 1.887 4.529 4.809 4.529a7.91 7.91 0 0 0 3.697-.9V61.2c-1.297.391-2.646.595-4.003.605-4.941 0-9.276-3.319-9.276-8.788 0-5.068 3.924-8.785 9.276-8.785 1.358.004 2.708.209 4.003.608v4.558zm-45.848 0a7.82 7.82 0 0 0-3.689-.904c-2.844 0-4.814 1.927-4.814 4.525 0 2.521 1.869 4.529 4.814 4.529a7.85 7.85 0 0 0 3.689-.9V61.2a14.16 14.16 0 0 1-4.003.605c-4.941 0-9.272-3.319-9.272-8.788 0-5.068 3.924-8.785 9.272-8.785a13.67 13.67 0 0 1 4.003.608v4.558zm68.865 3.622c0 4.853-3.845 8.788-9.201 8.788s-9.19-3.935-9.19-8.788 3.838-8.785 9.19-8.785 9.201 3.939 9.201 8.785zm-9.201-4.463a4.67 4.67 0 0 0-2.556.735c-.758.487-1.351 1.182-1.704 1.998s-.448 1.715-.275 2.584a4.43 4.43 0 0 0 1.246 2.297 4.62 4.62 0 0 0 2.346 1.232 4.69 4.69 0 0 0 2.653-.25c.839-.337 1.557-.911 2.062-1.646a4.4 4.4 0 0 0 .773-2.486c.012-.587-.096-1.17-.32-1.715s-.557-1.04-.981-1.457a4.49 4.49 0 0 0-1.487-.967 4.59 4.59 0 0 0-1.757-.324zm-32.573-.165a15.61 15.61 0 0 0-3.435-.517c-1.76 0-2.717.576-2.717 1.392 0 1.035 1.29 1.396 2.015 1.618l1.21.364c2.852.882 4.149 2.787 4.149 4.853 0 4.263-3.846 5.695-7.206 5.695a27.04 27.04 0 0 1-4.742-.463V57.44c1.35.381 2.744.593 4.148.63 2.186 0 3.192-.623 3.192-1.585 0-.86-.871-1.355-1.959-1.691l-.938-.295c-2.448-.751-4.484-2.153-4.484-4.962 0-3.173 2.44-5.305 6.488-5.305a19.41 19.41 0 0 1 4.282.539l-.003 3.622zM82.772 26.299a2.1 2.1 0 0 0-.67-1.447c-.407-.38-.948-.592-1.511-.592s-1.105.212-1.511.592a2.11 2.11 0 0 0-.67 1.447v4.456a2.1 2.1 0 0 0 .67 1.447c.407.38.948.592 1.511.592s1.105-.212 1.511-.592a2.11 2.11 0 0 0 .67-1.447v-4.456zm11.977-5.848a2.1 2.1 0 0 0-.67-1.447c-.407-.38-.948-.592-1.511-.592s-1.105.212-1.511.592a2.11 2.11 0 0 0-.67 1.447v10.304a2.1 2.1 0 0 0 .67 1.447c.407.38.948.592 1.511.592s1.105-.212 1.511-.592a2.11 2.11 0 0 0 .67-1.447V20.451zm11.978-7.997c-.023-.549-.263-1.067-.669-1.447s-.948-.592-1.511-.592a2.21 2.21 0 0 0-1.511.592 2.1 2.1 0 0 0-.67 1.447v22.535a2.1 2.1 0 0 0 .67 1.447 2.21 2.21 0 0 0 1.511.592c.563 0 1.104-.212 1.511-.592a2.1 2.1 0 0 0 .669-1.447V12.454zm11.979 7.997a2.11 2.11 0 0 0-.67-1.447c-.406-.38-.948-.592-1.511-.592s-1.105.212-1.511.592a2.11 2.11 0 0 0-.67 1.447v10.304a2.11 2.11 0 0 0 .67 1.447 2.21 2.21 0 0 0 3.022 0 2.11 2.11 0 0 0 .67-1.447V20.451zm11.966 5.848c-.023-.547-.262-1.063-.667-1.442s-.945-.59-1.506-.59-1.101.211-1.506.59-.644.896-.667 1.442v4.456a2.07 2.07 0 0 0 .139.838 2.1 2.1 0 0 0 .464.718c.203.206.447.37.717.483a2.21 2.21 0 0 0 .853.17c.293 0 .583-.058.853-.17s.514-.276.717-.483a2.1 2.1 0 0 0 .464-.718 2.07 2.07 0 0 0 .139-.838v-4.456zm11.986-5.843c0-.562-.229-1.102-.637-1.5s-.961-.621-1.538-.621-1.13.223-1.538.621-.637.937-.637 1.5v10.3a2.09 2.09 0 0 0 .637 1.499c.408.397.961.621 1.538.621s1.13-.223 1.538-.621.637-.937.637-1.499v-10.3zm11.985-8.002c0-.562-.23-1.102-.637-1.499s-.962-.621-1.538-.621a2.2 2.2 0 0 0-1.538.621c-.408.398-.638.937-.638 1.499v22.535c0 .562.23 1.102.638 1.499a2.2 2.2 0 0 0 1.538.621c.576 0 1.13-.223 1.538-.621s.637-.937.637-1.499V12.454zm11.984 8.001a2.11 2.11 0 0 0-.672-1.452 2.22 2.22 0 0 0-3.032 0 2.11 2.11 0 0 0-.672 1.452v10.3a2.11 2.11 0 0 0 .672 1.453 2.22 2.22 0 0 0 3.032 0 2.11 2.11 0 0 0 .672-1.453v-10.3zm11.96 5.844a2.1 2.1 0 0 0-.668-1.445 2.21 2.21 0 0 0-3.017 0 2.1 2.1 0 0 0-.669 1.445v4.456a2.08 2.08 0 0 0 .139.839c.104.268.263.512.466.719a2.16 2.16 0 0 0 .718.483c.271.112.561.17.854.17a2.23 2.23 0 0 0 .855-.17 2.18 2.18 0 0 0 .717-.483 2.11 2.11 0 0 0 .466-.719 2.08 2.08 0 0 0 .139-.839v-4.456z" />
</svg>
