<svg xmlns="http://www.w3.org/2000/svg" xmlns:xlink="http://www.w3.org/1999/xlink" xmlns:v="https://vecta.io/nano" width="256" height="72" fill="none"><script xmlns=""/><g fill="#FEFDF5"><use xlink:href="#B"/><path d="M163.216 27.668c-3.351 0-6.028 1.402-8.177 4.28l-.164.218-.127-.237c-1.366-2.75-3.934-4.243-7.23-4.243-3.86 0-5.973 2.24-7.393 4.188l-.31.419v-3.078a1.02 1.02 0 0 0-1.02-1.02h-3.278a1.02 1.02 0 0 0-1.019 1.02v22.29a1.02 1.02 0 0 0 1.019 1.02h3.278a1.02 1.02 0 0 0 1.02-1.02V38.777c0-3.824 2.131-6.283 5.445-6.283 3.278 0 5.172 2.24 5.172 6.155v12.875a1.02 1.02 0 0 0 1.02 1.02h3.278a1.02 1.02 0 0 0 1.02-1.02V38.795c0-3.879 2.094-6.283 5.445-6.283 4.498 0 5.171 3.879 5.171 6.192v12.839a1.02 1.02 0 0 0 1.02 1.02h3.278a1.02 1.02 0 0 0 1.02-1.02v-14.55c0-5.955-3.078-9.324-8.468-9.324z"/><use xlink:href="#B" x="53.03" y="0.018"/><path d="M199.455 28.196h-5.627v-5.755a1.02 1.02 0 0 0-1.02-1.02h-3.277a1.02 1.02 0 0 0-1.02 1.02v5.755h-2.094a1.02 1.02 0 0 0-1.02 1.02v2.495a1.02 1.02 0 0 0 1.02 1.02h2.112v13.148c0 4.753 2.258 7.066 6.938 7.066 1.657 0 3.041-.291 4.334-.892.365-.164.583-.528.583-.929v-2.185c0-.31-.146-.619-.4-.801-.255-.2-.583-.255-.893-.164a7.59 7.59 0 0 1-2.058.273c-2.13 0-3.205-1.093-3.205-3.26V32.713h5.627a1.02 1.02 0 0 0 1.02-1.02v-2.495c0-.546-.455-1.002-1.02-1.002zm26.825.437a1.02 1.02 0 0 0-.838-.437h-3.314c-.437 0-.82.273-.965.674l-6.283 17.956-6.829-17.974c-.146-.401-.528-.656-.947-.656h-3.478a.97.97 0 0 0-.838.455c-.182.273-.219.637-.091.947l9.615 23.146-.036.055c-1.075 2.404-2.24 2.914-3.661 2.914-.764 0-1.566-.164-2.367-.474-.51-.2-1.074.036-1.293.528l-.947 2.076c-.109.255-.127.528-.018.783a.98.98 0 0 0 .546.565c1.493.656 2.987.947 4.68.947 3.879 0 6.046-1.839 7.977-6.811l9.178-23.747c.146-.31.091-.656-.091-.947zM67.701 18.745h-3.278a1.02 1.02 0 0 0-1.02 1.02v12.584l-.31-.401c-2.185-2.877-4.899-4.279-8.268-4.279-5.609 0-11.272 4.334-11.272 12.638v.091c0 8.195 5.809 12.638 11.273 12.638 3.387 0 6.101-1.493 8.268-4.553l.31-.437v3.46a1.02 1.02 0 0 0 1.02 1.02h3.278a1.02 1.02 0 0 0 1.02-1.02V19.764a1.02 1.02 0 0 0-1.02-1.02zM48.907 40.397v-.091c0-4.68 3.059-8.067 7.266-8.067 4.17 0 7.321 3.46 7.321 8.067v.091c0 4.516-3.205 8.067-7.321 8.067-4.134-.018-7.266-3.478-7.266-8.067zm36.24-12.729c-7.284 0-13.002 5.591-13.002 12.729v.091c0 7.048 5.664 12.584 12.911 12.584 7.321 0 13.057-5.572 13.057-12.675v-.091c0-7.102-5.7-12.638-12.966-12.638zm0 20.778c-4.316 0-7.685-3.551-7.685-8.067v-.091c0-4.644 3.187-8.013 7.594-8.013s7.74 3.496 7.74 8.104v.091c0 4.625-3.205 7.976-7.648 7.976zm26.915-8.395l7.412-10.271c.218-.31.255-.71.073-1.056s-.528-.546-.911-.546h-3.096a1.02 1.02 0 0 0-.837.437l-5.482 7.958-5.481-7.958a1.02 1.02 0 0 0-.838-.437h-3.223a1.05 1.05 0 0 0-.911.546c-.182.346-.146.747.073 1.056l7.412 10.326-7.74 10.781c-.219.31-.255.71-.073 1.056s.528.546.91.546h3.096a1.02 1.02 0 0 0 .838-.437l5.809-8.468 5.864 8.468c.182.273.509.437.837.437h3.242a1.05 1.05 0 0 0 .91-.546c.182-.346.146-.747-.073-1.056l-7.812-10.835zm-75.52-5.463c-.127-1.42-.091-3.132.583-5.481.565-1.894 1.912-3.988 3.478-5.463 1.53-1.439 3.606-2.568 5.864-3.078 2.149-.492 3.952-.455 5.318-.291.2 0 .346.091.419.182.146.146.164.474.091.565-.073.073-.255.146-.437.146-2.968.182-6.155 1.785-9.215 4.662-2.804 2.64-4.808 5.991-5.19 8.887-.018.182-.091.346-.182.419s-.437.055-.565-.091a.95.95 0 0 1-.164-.455zm-7.466-3.387c-.164-1.876-.128-4.17.783-7.303.747-2.531 2.531-5.299 4.626-7.266 2.04-1.912 4.789-3.405 7.812-4.097a20.9 20.9 0 0 1 7.066-.401.82.82 0 0 1 .565.237c.182.2.218.637.109.747-.091.091-.328.182-.564.2-3.952.255-8.195 2.386-12.256 6.21-3.751 3.533-6.41 7.976-6.92 11.837-.036.237-.128.455-.237.565s-.565.073-.765-.128c-.109-.109-.2-.31-.218-.601zm97.172-10.453c-1.457 0-2.659 1.184-2.659 2.659 0 1.457 1.184 2.659 2.659 2.659 1.457 0 2.659-1.184 2.659-2.659 0-1.457-1.184-2.659-2.659-2.659zm53.03 0c-1.457 0-2.659 1.184-2.659 2.659 0 1.457 1.184 2.659 2.659 2.659 1.457 0 2.659-1.184 2.659-2.659 0-1.457-1.202-2.659-2.659-2.659z"/></g><defs><path id="B" d="M127.887 28.178h-3.278a1.02 1.02 0 0 0-1.02 1.02v22.29a1.02 1.02 0 0 0 1.02 1.02h3.278a1.02 1.02 0 0 0 1.02-1.02v-22.29a1.02 1.02 0 0 0-1.02-1.02z"/></defs></svg>
