<svg xmlns="http://www.w3.org/2000/svg" xmlns:v="https://vecta.io/nano" width="256" height="72" fill="none"><script xmlns=""/><g clip-path="url(#A)" fill="#FEFDF5"><path opacity=".25" d="M69.653 57.644l17.422-17.296-8.782-8.719-17.421 17.296 8.782 8.719z"/><path opacity=".25" d="M78.184 40.241l8.782-8.719-17.422-17.296-8.782 8.719 17.421 17.296z"/><path opacity=".15" d="M60.493 57.691l8.782-8.719-17.422-17.296-8.782 8.719 17.422 17.296z"/><path opacity=".15" d="M52.264 39.817l17.421-17.296-8.782-8.719-17.421 17.296 8.782 8.719z"/><path d="M65.03 24.647c3.454 0 6.254-2.779 6.254-6.208s-2.8-6.208-6.254-6.208-6.253 2.78-6.253 6.208 2.8 6.208 6.253 6.208zm17.661 17.59c3.454 0 6.254-2.78 6.254-6.208s-2.8-6.208-6.254-6.208-6.254 2.78-6.254 6.208 2.8 6.208 6.254 6.208zM65.03 59.77c3.454 0 6.254-2.78 6.254-6.208s-2.8-6.208-6.254-6.208-6.253 2.78-6.253 6.208 2.8 6.208 6.253 6.208zM47.398 42.18c3.454 0 6.253-2.78 6.253-6.208s-2.8-6.208-6.253-6.208-6.254 2.78-6.254 6.208 2.8 6.208 6.254 6.208zm96.004-13.509h-7.614c-.145 0-.261.115-.261.259v13.308c0 .144.116.259.261.259h7.614c.145 0 .261-.115.261-.259V40.11c0-.144-.116-.259-.261-.259h-4.661c-.289 0-.492-.201-.492-.489v-2.184a.47.47 0 0 1 .492-.489h4.256c.145 0 .261-.115.261-.259v-1.897c0-.144-.116-.259-.261-.259h-4.256c-.289 0-.492-.201-.492-.489v-2.012a.47.47 0 0 1 .492-.489h4.661c.145 0 .261-.115.261-.259v-2.069c0-.173-.116-.287-.261-.287zm31.616 13.825c.087 0 .173-.057.202-.115.058-.057.058-.172.029-.23l-5.385-13.337c-.058-.086-.144-.172-.231-.172h-1.361c-.087 0-.174.058-.232.172l-5.385 13.308c-.029.057-.029.172.029.23s.145.115.203.115h2.461c.116 0 .174-.057.231-.172l.666-1.84c.058-.172.261-.316.464-.316h4.516a.51.51 0 0 1 .463.316l.637 1.84c.058.086.116.172.232.172l2.461.029zm-4.575-4.886c-.087.144-.231.201-.405.201h-2.113a.47.47 0 0 1-.406-.201c-.087-.144-.116-.287-.058-.431l1.043-2.932a.47.47 0 0 1 .636-.287c.145.057.261.172.29.287l1.042 2.932c.087.115.058.288-.029.431zm31.181 4.886c.145 0 .261-.115.261-.259V40.11c0-.144-.116-.259-.261-.259h-3.966c-.29 0-.492-.201-.492-.489V28.901c0-.144-.116-.259-.261-.259h-2.229c-.145 0-.261.115-.261.259v13.308c0 .144.116.259.261.259l6.948.029zm-21.627 0h5.27c.81.029 1.621-.172 2.345-.546.637-.345 1.129-.862 1.476-1.437.319-.575.521-1.236.521-1.897.058-1.437-.781-2.788-2.113-3.42-.058-.029-.058-.058-.058-.115v-.057l.058-.057c.782-.632 1.216-1.61 1.216-2.616a3.92 3.92 0 0 0-.463-1.811 3.24 3.24 0 0 0-1.39-1.322 5.35 5.35 0 0 0-2.316-.517h-4.459a.27.27 0 0 0-.289.287v13.279c-.087.115.058.23.202.23zm2.461-10.778c0-.23.174-.402.406-.402h1.216a1.83 1.83 0 0 1 1.273.402c.261.23.406.517.464.862a1.54 1.54 0 0 1-.464 1.293c-.347.316-.839.489-1.302.46h-1.187c-.232 0-.406-.172-.406-.402v-2.213zm0 5.289c0-.23.174-.402.406-.402h1.853c.492-.029.984.144 1.331.489.348.287.521.719.521 1.178a1.6 1.6 0 0 1-.521 1.207c-.376.345-.868.517-1.36.489h-1.824c-.232 0-.435-.201-.435-.431l.029-2.529zm-26.259.719c-.145-.23-.058-.517.174-.632.608-.374 1.1-.862 1.447-1.466.406-.719.637-1.552.637-2.386 0-.776-.202-1.552-.579-2.242-.405-.69-.984-1.293-1.679-1.667-.753-.431-1.621-.632-2.49-.632h-4.227c-.145 0-.26.115-.26.259v13.308c0 .144.115.259.26.259h2.23c.144 0 .26-.115.26-.259v-4.024a.47.47 0 0 1 .492-.489h.666c.174 0 .348.086.434.259l2.288 4.369c.058.086.144.144.231.144h2.519c.145 0 .261-.086.29-.23 0-.057 0-.086-.058-.144l-2.635-4.426zm-1.129-3.104c-.405.374-.984.546-1.535.517h-1.1c-.289 0-.492-.201-.492-.489v-2.874a.47.47 0 0 1 .492-.489h1.1a2.19 2.19 0 0 1 1.535.546c.753.747.782 1.955.058 2.702-.029.029-.058.058-.058.086zm-24.638-5.95h-8.772c-.145 0-.261.115-.261.259v2.127c0 .144.116.259.261.259h2.576c.29 0 .492.201.492.489v10.491c0 .144.116.259.261.259h2.258c.145 0 .261-.115.261-.259v-10.52a.47.47 0 0 1 .492-.489h2.49c.145 0 .26-.115.26-.259v-2.127c-.057-.115-.173-.23-.318-.23zm84.134 11.209h-4.661a.47.47 0 0 1-.493-.489v-2.184a.47.47 0 0 1 .493-.489h4.255c.145 0 .261-.115.261-.259v-1.897c0-.144-.116-.259-.261-.259h-4.255a.47.47 0 0 1-.493-.489v-2.012a.47.47 0 0 1 .493-.489h4.661c.145 0 .26-.115.26-.259v-2.098c0-.144-.115-.259-.26-.259h-7.615c-.144 0-.26.115-.26.259v13.308c0 .144.116.259.26.259h7.644c.144 0 .26-.115.26-.259v-2.127c-.029-.144-.144-.259-.289-.259zm-98.349-.029h-2.201c-.289 0-.492-.201-.492-.489v-7.617a.47.47 0 0 1 .492-.489h2.23c.144 0 .26-.115.26-.259v-2.127c0-.144-.116-.259-.26-.259h-8.31c-.144 0-.26.115-.26.259v2.127c0 .144.116.259.26.259h2.346c.289 0 .492.201.492.489v7.645c0 .259-.232.46-.492.46h-2.346c-.144 0-.26.115-.26.259v2.127c0 .144.116.259.26.259h3.011c.029 0 .058.029.058.029h2.259c.029 0 .057 0 .057-.029h2.896c.144 0 .26-.115.26-.259V40.11c0-.144-.116-.259-.26-.259z"/></g><defs><clipPath id="A"><path fill="#fff" transform="translate(41 12)" d="M0 0h174v48H0z"/></clipPath></defs></svg>
