<svg xmlns="http://www.w3.org/2000/svg" width="256" height="72" viewBox="0 0 256 72" fill="none">
  <script xmlns="" />
  <g clip-path="url(#clip0_1270_6650)">
    <path
      d="M54.69 15.9355L56.5172 19.1622C56.8827 19.8297 56.8827 20.6457 56.5172 21.3132L45.6268 40.4875L50.7797 49.5368C51.5837 50.9462 53.082 51.8363 54.69 51.8363C56.298 51.8363 57.7963 50.9462 58.6003 49.5368L63.7532 40.4875L62.401 38.0397L56.5538 48.313C56.1883 48.9805 55.4574 49.3885 54.7265 49.3885C53.9591 49.3885 53.2647 48.9805 52.8993 48.313L48.4042 40.4875L58.5272 22.6855L60.3545 25.9121C60.7199 26.5797 60.7199 27.3956 60.3545 28.0632L53.3013 40.4875L54.69 42.9353L62.3645 29.4354L67.4077 38.2993C68.1751 39.6716 68.1751 41.3405 67.4077 42.7127L62.2914 51.725C61.5239 53.0973 59.0754 56.1755 54.69 56.1755C50.3046 56.1755 47.8926 53.0973 47.0886 51.725L41.9723 42.7127C41.2049 41.3405 41.2049 39.6716 41.9723 38.2993L54.69 15.9355Z"
      fill="#FEFDF5" />
    <path d="M78.4814 25.5415H82.0263V46.7927H78.4814V25.5415Z" fill="#FEFDF5" />
    <path
      d="M86.7769 29.4355C87.9274 29.4355 88.86 28.489 88.86 27.3215C88.86 26.154 87.9274 25.2075 86.7769 25.2075C85.6265 25.2075 84.6938 26.154 84.6938 27.3215C84.6938 28.489 85.6265 29.4355 86.7769 29.4355Z"
      fill="#FEFDF5" />
    <path
      d="M84.9863 32.0318H88.5677V46.7926H84.9863V32.0318ZM97.9598 31.6609C93.9033 31.6609 90.6143 34.5538 90.6143 39.1526C90.6143 43.7515 93.4648 46.5701 97.9964 46.5701C99.7871 46.5701 101.687 47.4973 101.687 49.5371C101.687 51.5769 100.079 52.7266 97.9964 52.7266C95.9133 52.7266 94.1957 51.4657 94.1957 49.5371H90.6143C90.6143 53.5055 93.7571 56.1387 97.9964 56.1387C102.199 56.1387 105.269 53.6167 105.269 49.5371C105.269 47.6456 104.684 45.8654 102.272 44.6416C104.648 43.5289 105.342 40.9699 105.342 39.1155C105.342 34.5538 102.016 31.6609 97.9598 31.6609ZM97.9964 43.566C95.9133 43.566 94.1957 41.7487 94.1957 39.1526C94.1957 36.5936 95.9133 34.7021 97.9964 34.7021C100.079 34.7021 101.761 36.6307 101.761 39.1526C101.761 41.7116 100.043 43.566 97.9964 43.566ZM115.721 31.6609C114.076 31.6609 112.505 32.1801 111.189 33.8491V25.5044H107.608V46.7555H111.189V39.2639C111.189 37.0757 112.651 35.2584 114.771 35.2584C116.671 35.2584 118.06 36.4081 118.06 39.0784V46.7555H121.641V38.8188C121.678 34.4796 119.85 31.6609 115.721 31.6609ZM130.375 44.2707C129.937 44.2707 129.571 44.1223 129.352 43.8256C129.133 43.5289 129.023 43.0839 129.023 42.4163V35.1472H131.91L132.239 31.9947H129.06V27.9522L125.442 28.3601V32.0318H122.701V35.1842H125.442V42.5276C125.442 44.0482 125.807 45.1979 126.502 45.9767C127.196 46.7555 128.256 47.1635 129.608 47.1635C130.229 47.1635 130.814 47.0893 131.435 46.9039C132.056 46.7185 132.605 46.4588 133.08 46.1251L131.837 43.7885C131.362 44.1223 130.85 44.2707 130.375 44.2707ZM145.103 38.8559C143.641 37.9287 141.924 37.8175 140.242 37.7062C139.256 37.632 137.757 37.4095 137.757 36.1114C137.757 35.1842 138.708 34.665 140.425 34.665C141.814 34.665 143.02 34.9988 144.043 35.9631L146.053 33.5895C144.372 32.106 142.654 31.6609 140.352 31.6609C137.684 31.6609 134.176 32.8477 134.176 36.2598C134.176 37.6691 134.907 38.9672 136.113 39.7089C137.465 40.5619 139.219 40.6732 140.718 40.8586C141.741 40.9699 143.422 41.2295 143.13 42.6759C142.947 43.6773 141.741 43.974 140.9 44.0111C139.987 44.0482 139.073 43.974 138.159 43.7515C137.209 43.4918 136.442 43.0468 135.601 42.4905L133.774 44.827C133.884 44.9012 133.993 45.0124 133.993 45.0124C136.332 46.9781 139.585 47.6086 142.545 46.941C144.774 46.4218 146.674 44.7899 146.674 42.3421C146.747 40.9699 146.309 39.5977 145.103 38.8559ZM156.907 31.6609C155.262 31.6609 153.326 32.3656 152.193 33.9974L152.083 31.9947H148.611V53.2459L152.193 52.8379V45.0495C153.216 46.6443 155.445 47.1635 156.98 47.1635C161.621 47.1635 164.326 43.6402 164.326 39.3751C164.326 35.0359 161.366 31.6609 156.907 31.6609ZM156.615 44.0111C154.166 44.0111 152.522 41.7487 152.522 39.4493C152.522 37.1499 154.056 34.7021 156.615 34.7021C159.209 34.7021 160.708 37.187 160.708 39.4493C160.744 41.7487 159.063 44.0111 156.615 44.0111ZM169.003 40.7103C169.405 42.4534 170.977 43.974 173.535 43.974C174.851 43.974 176.605 43.3064 177.445 42.4534L179.748 44.7528C178.213 46.3476 175.691 47.1264 173.498 47.1264C168.967 47.1264 165.678 44.0852 165.678 39.3751C165.678 34.9246 169.077 31.6609 173.243 31.6609C177.628 31.6609 181.283 34.7021 180.917 40.7103H169.003ZM177.445 37.9287C177.043 36.1856 175.326 34.665 173.243 34.665C171.306 34.665 169.515 36.0002 169.003 37.9287H177.445ZM185.595 40.7103C185.997 42.4534 187.568 43.974 190.126 43.974C191.442 43.974 193.196 43.3064 194.037 42.4534L196.339 44.7528C194.804 46.3476 192.283 47.1264 190.09 47.1264C185.558 47.1264 182.269 44.0852 182.269 39.3751C182.269 34.9246 185.668 31.6609 189.834 31.6609C194.22 31.6609 197.874 34.7021 197.509 40.7103H185.595ZM194.073 37.9287C193.671 36.1856 191.954 34.665 189.871 34.665C187.934 34.665 186.143 36.0002 185.631 37.9287H194.073ZM206.17 47.1635C207.814 47.1635 209.751 46.4588 210.884 44.827L210.994 46.7926H214.465V25.5415H210.884V33.7749C209.861 32.1801 207.595 31.698 206.06 31.698C201.419 31.698 198.751 35.1842 198.751 39.4864C198.751 43.7885 201.711 47.1635 206.17 47.1635ZM206.426 34.8134C208.874 34.8134 210.519 37.0757 210.519 39.3751C210.519 41.6746 208.984 44.1223 206.426 44.1223C203.831 44.1223 202.333 41.6375 202.333 39.3751C202.333 37.0757 203.977 34.8134 206.426 34.8134Z"
      fill="#FEFDF5" />
  </g>
  <defs>
    <clipPath id="clip0_1270_6650">
      <rect width="173.589" height="40.8" fill="white" transform="translate(41.2056 15.6001)" />
    </clipPath>
  </defs>
</svg>
