<svg xmlns="http://www.w3.org/2000/svg" xmlns:v="https://vecta.io/nano" width="256" height="72" fill="none">
  <script xmlns="" />
  <g clip-path="url(#A)">
    <path
      d="M10.292 26.375l-3.125-2.75 3.25-3.208 2.792 3.083L15 22.334l-1.833-3.708 4.25-1.75 1.375 3.875 2.083-.417-.25-4.125h4.625L25 20.334c.708.083 1.417.208 2.083.417l1.375-3.875 4.25 1.75-1.75 3.708c.625.333 1.208.75 1.792 1.167l2.792-3.083 3.25 3.208-3.125 2.75c.417.542.833 1.125 1.208 1.75l3.75-1.792 1.75 4.208-3.958 1.375.417 2.042L43 33.75v4.542l-4.167-.208c-.083.708-.25 1.375-.417 2.042l3.958 1.375-1.75 4.208-3.75-1.792c-.375.625-.75 1.208-1.208 1.75l3.125 2.75-3.25 3.208-2.792-3.083-1.792 1.167 1.833 3.708-4.25 1.75-1.375-3.875-2.083.417.25 4.125h-4.625l.25-4.125c-.708-.083-1.417-.208-2.083-.417L17.5 55.167l-4.25-1.75 1.833-3.708c-.625-.333-1.208-.75-1.792-1.167L10.5 51.625l-3.25-3.208 3.125-2.75a18.46 18.46 0 0 1-1.208-1.75l-3.75 1.792-1.75-4.208 3.958-1.375-.417-2.042-4.167.208V33.75l4.167.208c.083-.708.208-1.375.417-2.042l-3.958-1.375 1.75-4.208 3.792 1.792c.25-.625.667-1.208 1.083-1.75zm3 9.625c-.042 1.917.5 3.833 1.583 5.458 1.042 1.625 2.542 2.875 4.333 3.667 1.792.75 3.75.958 5.625.625 1.917-.375 3.625-1.292 5.042-2.625 1.375-1.375 2.333-3.083 2.708-5 .375-1.875.208-3.875-.542-5.625-.75-1.792-1.958-3.333-3.583-4.375-1.583-1.083-3.5-1.667-5.417-1.667-1.25 0-2.542.25-3.708.708s-2.25 1.167-3.167 2.083c-.917.875-1.625 1.958-2.125 3.125-.5 1.083-.75 2.333-.75 3.625zm222-10.25l15.458 15.292v-14.5h2.208v19.542L237.5 30.834V45.25h-2.208v-19.5zm-26.959 10.125c0 4.208 3.625 7.75 8.125 7.75s8.125-3.542 8.125-7.75-3.583-7.75-8.125-7.75-8.125 3.5-8.125 7.75zm18.417.042c0 5.375-4.667 9.667-10.333 9.667s-10.334-4.25-10.334-9.667c0-5.375 4.667-9.708 10.334-9.708s10.333 4.333 10.333 9.708zm-29.833-5.75c-.792-1.292-1.75-2.042-3.417-2.042-1.75 0-3.292 1.208-3.292 2.917 0 1.625 1.75 2.375 3.084 2.917l1.333.542c2.583 1.083 4.75 2.292 4.75 5.25 0 3.292-2.792 5.792-6.208 5.792-3.167 0-5.542-1.917-6.167-4.833l2.167-.583c.125.958.583 1.875 1.333 2.5s1.667 1 2.667 1c2.125 0 4.083-1.542 4.083-3.625 0-2.125-1.833-2.917-3.667-3.708l-1.208-.5c-2.292-1-4.292-2.125-4.292-4.792 0-2.917 2.584-4.75 5.542-4.75 1.042-.042 2.042.25 2.958.75a5.42 5.42 0 0 1 2.167 2.167l-1.833 1zm-25.625 5.042h.666c2.5 0 5-.458 5-3.333 0-3.083-2.375-3.375-5.041-3.375h-.667l.042 6.708zm0 10.042h-2.209V26.542h2.875c3.75 0 7.25.958 7.25 5.167 0 2.875-1.916 4.917-5 5.167l6.292 8.375h-2.708l-5.959-8.208h-.541v8.208zm-21-18.708H160.5v1.917h-8.042v5.583h7.834v1.917h-7.834v7.333h8.042v1.917h-10.25V26.542h.042zm-15.959 8.583h1.5c2.459 0 4.5-.708 4.5-3.375 0-3.042-2.583-3.292-5.166-3.292h-.792l-.042 6.667zm0 10.125h-2.208V26.542h3.25c1.708 0 3.5.042 4.917 1 .708.458 1.25 1.125 1.666 1.833.375.75.584 1.583.584 2.417 0 .75-.167 1.542-.5 2.208a4.93 4.93 0 0 1-1.417 1.792c-1.333 1.042-3.042 1.25-4.708 1.25h-1.584v8.208zm-18.125-15.542v4.125h5.917V37h-5.917v5.083h6.125v3.167H112.5V26.542h9.833v3.167h-6.125zm-19.125 7.958l4.542-11.125h4l-8.458 19.75-8.375-19.75h4l4.292 11.125zM81.917 45.25h-3.708V26.542h3.708V45.25zm-16.042-3.167h5.25v3.167h-8.958V26.542h3.708v15.542z"
      fill="#FEFDF5" />
  </g>
  <defs>
    <clipPath id="A">
      <path fill="#fff" transform="translate(3 16)" d="M0 0h250v40H0z" />
    </clipPath>
  </defs>
</svg>
