<svg xmlns="http://www.w3.org/2000/svg" xmlns:v="https://vecta.io/nano" width="256" height="72" fill="none">
  <script xmlns="" />
  <path
    d="M101.503 21.602h-8.79v11.446h-9.15V21.602h-8.79v28.797h8.79V39.071h9.15v11.327h8.79V21.602zm30.577 23.01v-23.01h-8.79v28.797h15.894l1.322-5.786h-8.426zm-15.289-23.01h-8.79v28.797h8.79V21.602zm35.635 0h-8.786v28.797h8.786V21.602zm43.337 7.35c0-1.567 1.567-2.292 4.092-2.292 2.77 0 5.782.606 7.828 1.453l-.72-6.269c-2.292-.483-4.338-.843-8.066-.843-7.104 0-11.92 2.803-11.92 8.676 0 10.12 13.729 8.074 13.729 12.772 0 1.805-1.33 2.766-4.579 2.766-2.885 0-7.346-.962-9.993-2.288l.965 6.629c2.648.966 6.257 1.445 9.151 1.445 7.341 0 13.361-2.41 13.361-9.641 0-9.633-13.848-7.829-13.848-12.408zm-24.795 14.581c8.18 0 13.361-4.219 13.361-11.569 0-8.07-5.537-10.963-14.568-10.963-3.491 0-7.706.241-10.714.602v28.797h8.79v-6.867h3.131zm4.694-11.446c0 3.732-1.805 6.265-6.384 6.265h-1.441v-11.9c.512-.029.991-.029 1.441-.029 4.334 0 6.384 2.046 6.384 5.664zM57.921 43.532c8.184 0 13.361-4.219 13.361-11.569 0-8.07-5.537-10.963-14.564-10.963-3.495 0-7.706.241-10.718.602v28.797h8.79v-6.867h3.13zm4.698-11.446c0 3.732-1.809 6.265-6.384 6.265H54.79v-11.9c.511-.029.994-.029 1.444-.029 4.334 0 6.384 2.046 6.384 5.664z"
    fill="#FEFDF5" />
</svg>
