<svg xmlns="http://www.w3.org/2000/svg" xmlns:v="https://vecta.io/nano" width="256" height="72" fill="#FEFDF5"><script xmlns=""/><path d="M78.046 28.717h5.596v21.735h-5.596v-2.565c-1.692 2.13-4.034 3.173-7.071 3.173-2.847.031-5.567-1.174-7.462-3.304-2.045-2.221-3.15-5.151-3.08-8.172a11.56 11.56 0 0 1 3.08-8.129c2.082-2.217 4.555-3.347 7.462-3.347 3.037 0 5.379 1.043 7.071 3.173v-2.565zm-6.03 16.997c1.604.052 3.158-.561 4.295-1.695a6 6 0 0 0 1.735-4.434c0-1.782-.564-3.26-1.735-4.39-1.121-1.164-2.682-1.796-4.295-1.739-1.613-.057-3.174.575-4.295 1.739a5.97 5.97 0 0 0-1.692 4.39 6.14 6.14 0 0 0 1.692 4.434 5.81 5.81 0 0 0 4.295 1.695zm16.691 4.738V21.08h5.596v29.373h-5.596zm30.723 0h-6.507l-7.895-9.868v9.868h-5.596V21.08h5.596v17.201l7.462-9.563h6.68l-8.719 10.737 8.979 10.998zM137.088 21h5.596v29.332h-5.596v-2.565c-1.649 2.13-3.992 3.173-7.028 3.173a9.93 9.93 0 0 1-7.505-3.304c-2.045-2.221-3.15-5.151-3.08-8.172a11.56 11.56 0 0 1 3.08-8.129c2.082-2.217 4.598-3.347 7.505-3.347 3.036 0 5.379 1.043 7.028 3.173V21zm-5.987 24.594c1.604.052 3.158-.561 4.295-1.695a6.15 6.15 0 0 0 1.692-4.434c.06-1.634-.552-3.221-1.692-4.39-1.121-1.164-2.682-1.796-4.295-1.739-1.624-.049-3.196.581-4.338 1.739a5.97 5.97 0 0 0-1.692 4.39 6.14 6.14 0 0 0 1.692 4.434 5.98 5.98 0 0 0 4.338 1.695zm20.945-3.705c.738 2.739 2.777 4.086 6.117 4.086 2.126 0 3.774-.739 4.859-2.173l4.511 2.608c-2.125 3.086-5.292 4.651-9.457 4.651-3.6 0-6.464-1.087-8.633-3.26s-3.253-4.912-3.253-8.216c0-3.26 1.084-5.999 3.21-8.172 2.126-2.217 4.902-3.304 8.242-3.304 3.167 0 5.813 1.087 7.852 3.304 2.083 2.217 3.124 4.912 3.124 8.172a14.71 14.71 0 0 1-.217 2.304h-16.355zm10.976-4.347c-.651-2.956-2.82-4.391-5.38-4.391-2.993 0-5.032 1.608-5.683 4.391h11.063zm18.739-.261c3.167.652 7.288 2.173 7.245 6.825 0 2.217-.824 3.956-2.516 5.173-1.649 1.174-3.731 1.782-6.204 1.782-4.468 0-7.504-1.739-9.109-5.173l4.858-2.739c.651 1.869 2.039 2.826 4.251 2.826 1.996 0 2.994-.608 2.994-1.869 0-1.174-1.735-1.826-3.948-2.391-3.21-.826-7.244-2.173-7.244-6.694 0-2.13.78-3.825 2.342-5.042 1.605-1.261 3.557-1.869 5.9-1.869 3.514 0 6.55 1.652 8.242 4.608l-4.772 2.608a3.58 3.58 0 0 0-3.47-2.217c-1.432 0-2.516.696-2.516 1.782 0 1.174 1.735 1.826 3.947 2.391zm30.845 13.171h-6.507l-7.895-9.868v9.868h-5.597V21.08h5.597v17.201l7.461-9.563h6.681l-8.72 10.737 8.98 10.998zM57.863 33.986h-4.902v9.469c0 2.347 1.692 2.391 4.902 2.217v5.086c-7.678.869-10.498-1.348-10.498-7.303V21h5.596v7.596h4.902v5.39zm-19.012-.056c1.574 0 2.851-1.279 2.851-2.857s-1.276-2.857-2.851-2.857S36 29.496 36 31.073s1.276 2.857 2.851 2.857zm0 7.957c1.574 0 2.851-1.279 2.851-2.857s-1.276-2.856-2.851-2.856S36 37.453 36 39.03s1.276 2.857 2.851 2.857zm0 7.957c1.574 0 2.851-1.279 2.851-2.856s-1.276-2.856-2.851-2.856S36 45.41 36 46.988s1.276 2.856 2.851 2.856zm179.302-15.953c-.38.003-.757-.072-1.106-.221a2.87 2.87 0 0 1-1.52-1.523 2.9 2.9 0 0 1 0-2.218 2.87 2.87 0 0 1 1.52-1.523 2.88 2.88 0 0 1 2.213 0 2.87 2.87 0 0 1 1.519 1.523 2.89 2.89 0 0 1 0 2.218 2.87 2.87 0 0 1-1.519 1.523 2.79 2.79 0 0 1-1.107.221zm0-.531a2.23 2.23 0 0 0 1.166-.314 2.39 2.39 0 0 0 .838-.84c.417-.722.417-1.613 0-2.336a2.4 2.4 0 0 0-.838-.84 2.32 2.32 0 0 0-2.331 0 2.38 2.38 0 0 0-.838.84 2.33 2.33 0 0 0 0 2.336 2.38 2.38 0 0 0 .838.84 2.22 2.22 0 0 0 1.165.314zm-.964-1.038V29.69h1.26a.85.85 0 0 1 .386.094.81.81 0 0 1 .309.278.8.8 0 0 1 .123.451c.004.163-.04.324-.126.462-.08.125-.19.228-.321.298-.122.067-.26.103-.4.103h-.975v-.36h.854a.47.47 0 0 0 .47-.503.42.42 0 0 0-.144-.357.52.52 0 0 0-.315-.107h-.662v2.271h-.459zm1.53-1.223l.655 1.223h-.513l-.637-1.223h.495z"/></svg>
