<svg xmlns="http://www.w3.org/2000/svg" width="256" height="72" viewBox="0 0 256 72" fill="none">
  <script xmlns="" />
  <path
    d="M122.788 23.4343H128.163C128.519 23.4343 128.769 23.7791 128.662 24.1239L120.434 49.8749C120.361 50.1005 120.16 50.2438 119.934 50.2438H114.309C114.084 50.2438 113.881 50.1005 113.81 49.8863L107.27 30.9746L100.897 49.8863C100.825 50.1005 100.623 50.2438 100.398 50.2438H94.6067C94.3798 50.2438 94.1782 50.0891 94.1073 49.8749L85.7594 24.1239C85.6529 23.7791 85.9027 23.4343 86.2589 23.4343H91.9661C92.1917 23.4343 92.3946 23.5889 92.4656 23.8146L97.7925 41.977L104 23.7791C104.071 23.5648 104.273 23.4229 104.5 23.4229H110.35C110.576 23.4229 110.778 23.5648 110.85 23.7791L117.057 41.977L122.288 23.8146C122.348 23.5889 122.562 23.4343 122.788 23.4343Z"
    fill="#FEFDF5" />
  <path fill-rule="evenodd" clip-rule="evenodd"
    d="M154.085 36.553C154.085 37.1831 154.05 37.7421 154.001 38.1224C153.966 38.3848 153.74 38.5864 153.478 38.5864H134.334C134.489 42.6659 137.687 45.5804 141.646 45.5804C145.273 45.5804 147.247 43.7726 148.199 41.3576C148.294 41.0965 148.579 40.9659 148.841 41.0483L153.241 42.4402C153.526 42.5239 153.669 42.8332 153.573 43.1185C151.992 47.5542 147.83 51.0759 141.635 51.0759C134.37 51.0759 127.936 45.7946 127.936 36.7077C127.936 28.2267 134.215 22.6133 140.981 22.6133C149.234 22.6133 154.072 28.0606 154.085 36.553ZM147.629 33.8997C147.521 30.7608 145.428 27.9529 141.029 27.9529C137.009 27.9529 134.703 31.0334 134.476 33.8997H147.629Z"
    fill="#FEFDF5" />
  <path
    d="M203.337 23.445H208.914C209.282 23.445 209.532 23.8139 209.402 24.1587L199.307 49.9097C199.235 50.1125 199.033 50.2431 198.819 50.2431H193.147C192.933 50.2431 192.743 50.1125 192.659 49.9097L182.195 24.1587C182.052 23.8139 182.314 23.4336 182.682 23.4336H188.581C188.795 23.4336 188.997 23.5768 189.068 23.7784L196.025 42.595L202.837 23.7898C202.921 23.5768 203.111 23.4336 203.337 23.445Z"
    fill="#FEFDF5" />
  <path fill-rule="evenodd" clip-rule="evenodd"
    d="M234.468 38.1224C234.432 38.3848 234.206 38.5864 233.944 38.5864H214.801C214.954 42.6659 218.154 45.5804 222.113 45.5804C225.74 45.5804 227.714 43.7726 228.664 41.3576C228.759 41.0965 229.046 40.9659 229.307 41.0483L233.707 42.4402C233.993 42.5239 234.135 42.8332 234.039 43.1185C232.459 47.5542 228.297 51.0759 222.101 51.0759C214.836 51.0759 208.403 45.7946 208.403 36.7077C208.403 28.2267 214.682 22.6133 221.447 22.6133C229.7 22.6133 234.539 28.0606 234.539 36.5403C234.539 37.159 234.492 37.7307 234.468 38.1224ZM228.094 33.8997C227.987 30.7608 225.894 27.9529 221.494 27.9529C217.476 27.9529 215.168 31.0334 214.943 33.8997H228.094Z"
    fill="#FEFDF5" />
  <path fill-rule="evenodd" clip-rule="evenodd"
    d="M183.206 36.8034V49.7315C183.206 50.018 182.969 50.255 182.682 50.255H177.415C177.118 50.255 176.88 50.018 176.891 49.7201C176.915 48.9949 176.939 47.6499 176.939 46.4012C175.726 48.9823 172.921 50.9688 169.067 50.9688C161.207 50.9688 156.143 44.7481 156.143 36.7083C156.143 28.9411 161.636 22.5898 169.71 22.5898C169.9 22.5898 170.066 22.6013 170.245 22.6013C178.128 22.6013 183.218 28.7623 183.206 36.8034ZM176.891 36.7311C176.868 31.2128 173.669 28.2273 169.734 28.2159C165.477 28.2514 162.528 31.5462 162.528 36.6956C162.528 41.8222 165.333 45.4504 169.793 45.4504C173.967 45.4504 176.868 41.8932 176.891 36.7311Z"
    fill="#FEFDF5" />
  <path
    d="M45.663 31.3557C45.663 29.1309 44.8073 27.0379 43.2848 25.4444C41.7509 23.8496 39.6934 22.9585 37.4939 22.9103H37.4825C35.4364 22.9103 33.4626 23.6595 31.9173 25.0159C30.3834 26.3597 29.3958 28.203 29.1233 30.2021C28.909 31.7716 28.909 34.6619 28.909 35.9943C28.909 37.3267 28.9318 40.5492 29.1233 41.8334C29.4085 43.8199 30.4074 45.6517 31.9287 46.9841C33.4626 48.3278 35.425 49.0656 37.4698 49.0656C39.4563 49.0656 41.382 48.3519 42.9045 47.0677V47.0791C43.0592 46.96 43.2366 46.9726 43.3799 47.1387L46.591 52.4669C46.7216 52.6571 46.6861 52.8713 46.5669 52.9791C43.939 54.9288 40.7633 56 37.4698 56C33.5932 56 29.8953 54.5485 27.0531 51.9205C24.2236 49.304 22.4881 45.7595 22.1661 41.9411C22.0355 40.7748 22 37.172 22 35.9943C22 34.8166 22.0355 31.2239 22.1661 30.0589C22.4881 26.2405 24.2236 22.696 27.0531 20.0795C29.8953 17.4515 33.5932 16 37.4584 16C45.7936 16.1306 52.5721 23.1245 52.5721 31.5928V31.3672V40.6569C52.5721 42.8691 53.4278 44.9621 54.9617 46.5556C56.4956 48.1503 58.5531 49.0415 60.7526 49.0897H60.764C62.8101 49.0897 64.7839 48.3405 66.3292 46.9841C67.8631 45.6403 68.8507 43.797 69.1233 41.7979C69.3375 40.2284 69.3375 37.3381 69.3375 36.0057C69.3375 34.6733 69.3147 31.4508 69.1233 30.1654C68.838 28.1801 67.8391 26.3483 66.3178 25.0159C64.7839 23.6722 62.8215 22.9344 60.7767 22.9344C58.7902 22.9344 56.8645 23.6481 55.342 24.9323V24.9209C55.1873 25.04 55.0099 25.0274 54.8666 24.8613L51.6555 19.5331C51.5249 19.3417 51.5604 19.1287 51.6796 19.0209C54.3075 17.0699 57.4832 16 60.7767 16C64.6406 16 68.3385 17.4515 71.1934 20.0681C74.0229 22.6846 75.7584 26.2291 76.0804 30.0475C76.211 31.2125 76.2465 34.8166 76.2465 35.9943C76.2465 37.172 76.1996 40.7748 76.0804 41.9411C75.7584 45.7595 74.0229 49.304 71.1934 51.9205C68.3385 54.5485 64.6406 56 60.7767 56C52.4415 55.8694 45.663 48.8755 45.663 40.4072V31.3557Z"
    fill="#FEFDF5" />
</svg>
