<svg xmlns="http://www.w3.org/2000/svg" xmlns:v="https://vecta.io/nano" width="256" height="72" fill="none">
  <script xmlns="" />
  <g clip-path="url(#A)" fill="#FEFDF5">
    <path
      d="M71.356 23.116l5.86-.039c.373-.03.442.398.5.666l3.589 16.721 4.511-16.992a.5.5 0 0 1 .058-.2c.033-.062.078-.116.132-.16s.118-.076.185-.095a.52.52 0 0 1 .208-.015h4.867c.309-.025.439.307.5.553l4.617 16.937 3.614-16.918c.045-.307.236-.639.603-.581h5.204c.256-.036.712.044.556.415l-6.146 24.283c-.086.324-.192.83-.642.755h-5.737c-.331.039-.489-.276-.556-.553l-4.42-15.651-4.492 15.764a.57.57 0 0 1-.197.375c-.112.095-.256.144-.403.136h-5.693c-.359.044-.556-.276-.606-.586l-5.137-20.189-1.098-4.48.122-.147zm68.707.454a.5.5 0 0 1 .038-.219c.029-.069.072-.131.127-.182a.53.53 0 0 1 .193-.112c.072-.023.148-.03.223-.021h4.35a.49.49 0 0 1 .214.026.48.48 0 0 1 .182.115.49.49 0 0 1 .114.182c.024.069.032.141.024.213v12.545l5.871-5.977a1.25 1.25 0 0 1 .462-.356 1.26 1.26 0 0 1 .574-.109l5.499.019c.383 0 .169.412 0 .553l-6.116 6.278 6.549 11.317a1.75 1.75 0 0 1 .184.553l-5.282.014a1.04 1.04 0 0 1-.575-.142 1.03 1.03 0 0 1-.403-.433l-4.448-7.545-2.376 2.265v5.186c.041.302-.148.678-.498.658h-4.364a.56.56 0 0 1-.257-.043.55.55 0 0 1-.209-.154.54.54 0 0 1-.116-.232c-.019-.085-.018-.174.004-.259l.036-24.142zm82.789 1.217a.52.52 0 0 1 .181-.442.53.53 0 0 1 .467-.111h4.353c.303-.03.486.277.461.553v5.332h3.336l.339.31v2.724c-.156.155-.278.373-.542.343h-3.175v9.212c-.03.236.015.475.127.684s.288.379.502.486c.867.335 1.823.064 2.727.177V47.9a.45.45 0 0 1-.004.168c-.012.055-.035.107-.068.154a.43.43 0 0 1-.121.116.45.45 0 0 1-.158.061 16.74 16.74 0 0 1-4.673.086c-1.389-.177-2.721-1.004-3.302-2.293-.606-1.366-.456-2.898-.484-4.35v-8.358c-.761 0-1.523.033-2.279-.017a.5.5 0 0 1-.196-.051c-.061-.03-.115-.072-.159-.124a.5.5 0 0 1-.096-.177c-.019-.065-.024-.133-.016-.201v-2.257a.46.46 0 0 1 .012-.195c.018-.064.049-.123.091-.174a.48.48 0 0 1 .345-.171c.764-.053 1.531 0 2.298-.017l.034-5.313zm-110.603 4.596c2.485-.592 5.217-.501 7.535.636 1.64.844 2.944 2.214 3.703 3.889.813 1.796 1.236 3.744 1.24 5.714a.44.44 0 0 1-.002.219c-.019.072-.057.137-.108.191s-.116.093-.187.115-.147.026-.22.011h-12.993c-.047 1.659.74 3.446 2.282 4.22 1.893.921 4.448.47 5.757-1.217.262-.26.498-.777.951-.628l3.936 1.134.167.249a10.29 10.29 0 0 1-4.57 4.187 11.3 11.3 0 0 1-9.365-.108c-2.271-1.084-3.867-3.286-4.448-5.7a12.92 12.92 0 0 1 .77-8.319c.525-1.127 1.293-2.124 2.251-2.919a8.49 8.49 0 0 1 3.289-1.683m.498 4.555c-.881.703-1.312 1.789-1.523 2.862h7.733c-.103-.951-.345-1.955-1.051-2.65a3.92 3.92 0 0 0-2.535-1.064 3.93 3.93 0 0 0-2.613.859l-.011-.008zm52.977-4.678a13.85 13.85 0 0 1 8.583 1.563 7.14 7.14 0 0 1 1.474.949c.127.301-.159.534-.351.719l-2.34 2.149c-.098.121-.238.202-.392.225a.63.63 0 0 1-.442-.098c-1.29-.89-2.81-1.535-4.395-1.579-.859.047-1.926.113-2.432.921-.417.608.092 1.399.731 1.585 1.142.382 2.354.498 3.522.802 1.999.412 4.169.927 5.559 2.531 1.818 2.249 1.39 5.938-.856 7.76-1.965 1.69-4.661 2.276-7.202 2.254-3.1-.127-6.268-1.162-8.531-3.335-.053-.043-.094-.097-.12-.159s-.036-.13-.03-.197.029-.131.066-.188.088-.102.148-.134l2.763-2.439a.51.51 0 0 1 .397-.155c.073.004.145.022.211.055a.51.51 0 0 1 .17.136c1.39 1.25 3.194 2.152 5.101 2.171.973-.039 2.007-.213 2.799-.813.138-.103.252-.233.337-.382a1.24 1.24 0 0 0 .108-.99 1.25 1.25 0 0 0-.247-.445c-.498-.487-1.221-.614-1.877-.755-2.132-.365-4.361-.6-6.285-1.659a5.06 5.06 0 0 1-1.911-1.942 5.01 5.01 0 0 1-.618-2.647c.101-1.405.697-2.73 1.681-3.742 1.188-1.17 2.724-1.927 4.379-2.16h0zm41.432 0c2.966-.376 6.251-.086 8.681 1.809 2.941 2.323 4.1 6.378 3.466 9.979-.434 2.766-2.063 5.423-4.606 6.712-3.205 1.643-7.166 1.629-10.432.16a8.36 8.36 0 0 1-2.822-2.086c-.782-.886-1.365-1.928-1.712-3.055-.834-2.766-.801-5.838.397-8.482 1.215-2.788 4.05-4.649 7.028-5.036zm.953 4.348c-.772.147-1.473.548-1.988 1.139-1.073 1.242-1.412 2.945-1.37 4.544a7.16 7.16 0 0 0 .995 3.543c1.454 2.213 5.134 2.439 6.797.357 1.056-1.267 1.32-2.995 1.234-4.594-.075-1.383-.406-2.879-1.415-3.908-1.076-1.117-2.783-1.38-4.253-1.081h0zm-21.607-4.027c2.38-.691 5.118-.335 7.1 1.198 1.792 1.383 2.838 3.543 3.188 5.741.47 2.868.117 5.941-1.309 8.507-.948 1.601-2.427 3.004-4.281 3.452-1.788.434-3.772.456-5.443-.39-.556-.263-1.059-.581-1.573-.891v5.894a.51.51 0 0 1 .001.236c-.017.078-.053.151-.103.213s-.115.112-.188.145a.52.52 0 0 1-.233.047h-4.509a.56.56 0 0 1-.242-.042.55.55 0 0 1-.201-.142.56.56 0 0 1-.135-.458V30.127c-.033-.393.412-.553.731-.498l3.964.025c.556.384.209 1.236.317 1.817.745-.925 1.763-1.595 2.91-1.914m.518 3.778c-.923.299-1.693.941-2.149 1.792-.876 1.568-.97 3.429-.854 5.18.131 1.383.512 2.923 1.696 3.8 1.301 1.068 3.455.968 4.539-.357s1.482-3.133 1.474-4.832c0-1.61-.278-3.341-1.354-4.599a3.18 3.18 0 0 0-1.528-.982 3.2 3.2 0 0 0-1.819.012l-.005-.014zm-54.553-1.745c1.281-1.203 3.002-1.809 4.725-2.066.254-.042.514-.03.762.036l-.058 4.688c-1.412.462-3.058.343-4.345 1.195-.745.501-.898 1.46-.895 2.293v10.156a.54.54 0 0 1-.16.449.53.53 0 0 1-.21.126.54.54 0 0 1-.244.02h-4.359a.52.52 0 0 1-.22-.03c-.07-.026-.133-.066-.186-.119a.52.52 0 0 1-.12-.186.51.51 0 0 1-.03-.218V30.318a.52.52 0 0 1 .013-.242c.023-.079.064-.151.12-.211a.53.53 0 0 1 .201-.136c.077-.029.159-.041.241-.033l4.573.036c.409.476.103 1.245.192 1.858z" />
    <path fill-rule="evenodd"
      d="M44.922 16.015c-3.99-.161-7.938.869-11.335 2.958a20.09 20.09 0 0 0-6.91 7.079c-1.674 2.896-2.595 6.162-2.677 9.501v.893c.075 3.424 1.039 6.77 2.799 9.713 1.773 2.987 4.294 5.465 7.319 7.191 6.129 3.595 14.23 3.532 20.292-.185a20.01 20.01 0 0 0 8.934-11.357 19.9 19.9 0 0 0-1.07-14.383c-1.446-2.991-3.608-5.583-6.296-7.547a20.08 20.08 0 0 0-11.056-3.862zM34.727 27.176l7.883-3.872.026-.011c.399-.173.826-.272 1.261-.293.711.017 1.327.332 1.946.648l.528.262 1.541.761h0 0 0l4.935 2.427a3.27 3.27 0 0 1 .942.645 3.26 3.26 0 0 1 .276.304c.322.403.543.877.645 1.382l1.399 6.254.5 2.222a3.43 3.43 0 0 1 .033 1.408c-.144.453-.352.883-.617 1.278l-4.977 6.374-.324.416c-.272.401-.637.732-1.064.965a3.07 3.07 0 0 1-1.39.373h-2.568l.861-4.197.478-2.33h-6.426l.637 3.039v.001h0 0l.733 3.5c-.418-.035-.849-.018-1.281 0-.943.038-1.892.075-2.719-.425-.499-.262-.841-.709-1.177-1.147l-.194-.25-3.936-5.042c-.121-.161-.248-.319-.375-.478h0c-.263-.328-.526-.657-.745-1.011-.204-.328-.37-.676-.459-1.064-.106-.779.072-1.538.25-2.292l.145-.645.671-3.047.894-4.063a3 3 0 0 1 .587-1.241 3.02 3.02 0 0 1 1.08-.852z" />
  </g>
  <defs>
    <clipPath id="A">
      <path fill="#fff" transform="translate(24 16)" d="M0 0h208v40H0z" />
    </clipPath>
  </defs>
</svg>
