<svg width="323" height="123" viewBox="0 0 323 123" fill="none" xmlns="http://www.w3.org/2000/svg">
  <g filter="url(#filter0_d_6716_19112)">
    <path
      d="M20 30.476C20 22.481 25.695 16 32.72 16H290.28C297.305 16 303 22.481 303 30.476v54.048C303 92.519 297.305 99 290.281 99H32.719C25.695 99 20 92.519 20 84.524V30.476z"
      fill="url(#paint0_linear_6716_19112)" shape-rendering="crispEdges" />
  </g>
  <path
    d="M154.9 40.43c2.41 0 4.43 1.237 4.43 4.087v.505c0 3.16-1.808 4.593-5.146 4.593-3.42 0-5.391-1.45-5.391-4.17v-.276h2.606v.521c0 1.189 1.026 1.726 2.719 1.726 1.727 0 2.606-.586 2.606-1.889v-.912c0-1.319-.782-2.003-2.492-2.003-1.482 0-2.296.537-2.833 1.27h-2.459l.488-7.882h9.316v2.215h-7.02l-.293 3.518c.749-.815 1.808-1.303 3.469-1.303zM142.816 40.43c2.41 0 4.43 1.237 4.43 4.087v.505c0 3.16-1.808 4.593-5.146 4.593-3.42 0-5.391-1.45-5.391-4.17v-.276h2.606v.521c0 1.189 1.026 1.726 2.719 1.726 1.727 0 2.606-.586 2.606-1.889v-.912c0-1.319-.782-2.003-2.492-2.003-1.482 0-2.296.537-2.833 1.27h-2.459l.488-7.882h9.316v2.215h-7.02l-.293 3.518c.749-.815 1.808-1.303 3.469-1.303zM130.73 40.43c2.41 0 4.43 1.237 4.43 4.087v.505c0 3.16-1.808 4.593-5.146 4.593-3.42 0-5.391-1.45-5.391-4.17v-.276h2.606v.521c0 1.189 1.026 1.726 2.719 1.726 1.727 0 2.606-.586 2.606-1.889v-.912c0-1.319-.782-2.003-2.492-2.003-1.482 0-2.296.537-2.833 1.27h-2.459l.488-7.882h9.316v2.215h-7.02l-.293 3.518c.749-.815 1.808-1.303 3.469-1.303zM118.636 40.43c2.411 0 4.43 1.237 4.43 4.087v.505c0 3.16-1.808 4.593-5.146 4.593-3.42 0-5.391-1.45-5.391-4.17v-.276h2.606v.521c0 1.189 1.026 1.726 2.72 1.726 1.726 0 2.605-.586 2.605-1.889v-.912c0-1.319-.781-2.003-2.491-2.003-1.482 0-2.297.537-2.834 1.27h-2.459l.488-7.882h9.316v2.215h-7.019l-.293 3.518c.749-.815 1.807-1.303 3.468-1.303zM106.552 40.43c2.411 0 4.43 1.237 4.43 4.087v.505c0 3.16-1.808 4.593-5.146 4.593-3.42 0-5.391-1.45-5.391-4.17v-.276h2.606v.521c0 1.189 1.026 1.726 2.72 1.726 1.726 0 2.605-.586 2.605-1.889v-.912c0-1.319-.781-2.003-2.491-2.003-1.482 0-2.297.537-2.834 1.27h-2.459L101.08 36h9.316v2.215h-7.019l-.293 3.518c.749-.815 1.807-1.303 3.468-1.303z"
    fill="#000" />
  <path
    d="M34.492 37.908a7.238 7.238 0 017.238-7.238h36.19a7.238 7.238 0 017.239 7.238v36.19a7.238 7.238 0 01-7.238 7.239H41.73a7.238 7.238 0 01-7.239-7.239v-36.19z"
    fill="#00E3AA" />
  <path
    d="M59.812 43.34c-3.007-.003-5.96.597-8.554 1.74-2.594 1.143-4.732 2.786-6.195 4.758-1.462 1.973-2.194 4.203-2.12 6.46.073 2.256.95 4.457 2.539 6.374l-1.84 4.306a.905.905 0 001.037 1.236l6.252-1.45c2.22 1.035 4.728 1.67 7.33 1.854a22.076 22.076 0 007.66-.796c2.438-.707 4.623-1.829 6.384-3.277 1.762-1.449 3.05-3.185 3.766-5.071a9.629 9.629 0 00.356-5.8c-.481-1.928-1.552-3.745-3.129-5.31-1.576-1.563-3.614-2.831-5.955-3.703-2.34-.872-4.918-1.325-7.531-1.321z"
    fill="#3434EF" />
  <path
    d="M100.585 76.358v-13.09h1.585v5.829h6.981v-5.83h1.585v13.091h-1.585v-5.855h-6.981v5.855h-1.585zm17.056.205c-.946 0-1.762-.209-2.448-.627a4.205 4.205 0 01-1.579-1.764c-.366-.758-.549-1.64-.549-2.646s.183-1.892.549-2.66c.371-.77.887-1.371 1.547-1.802.665-.434 1.441-.652 2.327-.652.511 0 1.016.086 1.515.256.498.17.952.447 1.361.831.409.38.735.882.978 1.508.243.627.365 1.398.365 2.314v.64h-7.568v-1.304h6.034c0-.554-.111-1.049-.333-1.483a2.5 2.5 0 00-.933-1.03c-.401-.25-.874-.377-1.419-.377-.601 0-1.121.15-1.56.448a2.945 2.945 0 00-1.003 1.15c-.235.474-.352.98-.352 1.522v.87c0 .74.128 1.37.384 1.885.26.511.62.901 1.08 1.17.46.264.995.396 1.604.396a3.26 3.26 0 001.074-.166c.324-.115.603-.286.838-.512a2.33 2.33 0 00.543-.856l1.457.409a3.228 3.228 0 01-.773 1.304c-.362.37-.81.66-1.342.87-.533.204-1.132.306-1.797.306zm7.689-13.296v13.091h-1.509v-13.09h1.509zm4.091 0v13.091h-1.508v-13.09h1.508zm6.572 13.296c-.886 0-1.664-.211-2.333-.633-.665-.422-1.185-1.012-1.56-1.77-.37-.759-.556-1.645-.556-2.66 0-1.022.186-1.915.556-2.678.375-.763.895-1.355 1.56-1.777.669-.422 1.447-.633 2.333-.633.886 0 1.662.211 2.327.633.669.422 1.189 1.014 1.559 1.777.375.763.563 1.656.563 2.678 0 1.015-.188 1.901-.563 2.66-.37.758-.89 1.348-1.559 1.77-.665.422-1.441.633-2.327.633zm0-1.355c.673 0 1.227-.173 1.662-.518.435-.345.756-.799.965-1.361a5.208 5.208 0 00.313-1.829c0-.656-.104-1.267-.313-1.834a3.091 3.091 0 00-.965-1.374c-.435-.35-.989-.525-1.662-.525-.673 0-1.227.175-1.662.525-.435.35-.756.807-.965 1.374a5.261 5.261 0 00-.313 1.834c0 .657.104 1.266.313 1.829.209.562.53 1.016.965 1.361.435.345.989.518 1.662.518zm8.822-.64l-.103.691a13.859 13.859 0 01-.332 1.56 29.256 29.256 0 01-.454 1.566c-.158.49-.287.88-.39 1.17h-1.15l.217-1.08c.09-.448.179-.949.268-1.503.094-.55.171-1.112.231-1.688l.076-.715h1.637zm10.079 1.79l-3.579-13.09h1.611l2.736 10.661h.127l2.787-10.662h1.79l2.787 10.662h.128l2.736-10.662h1.61l-3.579 13.091h-1.636l-2.89-10.431h-.102l-2.889 10.431h-1.637zm17.399.205c-.887 0-1.664-.211-2.333-.633-.665-.422-1.185-1.012-1.56-1.77-.371-.759-.556-1.645-.556-2.66 0-1.022.185-1.915.556-2.678.375-.763.895-1.355 1.56-1.777.669-.422 1.446-.633 2.333-.633.886 0 1.662.211 2.326.633.669.422 1.189 1.014 1.56 1.777.375.763.562 1.656.562 2.678 0 1.015-.187 1.901-.562 2.66-.371.758-.891 1.348-1.56 1.77-.664.422-1.44.633-2.326.633zm0-1.355c.673 0 1.227-.173 1.662-.518.434-.345.756-.799.965-1.361a5.208 5.208 0 00.313-1.829c0-.656-.104-1.267-.313-1.834a3.099 3.099 0 00-.965-1.374c-.435-.35-.989-.525-1.662-.525-.674 0-1.228.175-1.662.525-.435.35-.757.807-.966 1.374a5.285 5.285 0 00-.313 1.834c0 .657.105 1.266.313 1.829.209.562.531 1.016.966 1.361.434.345.988.518 1.662.518zm6.571 1.15V66.54h1.458v1.483h.102c.179-.486.503-.88.971-1.182a2.864 2.864 0 011.586-.454c.11 0 .249.002.415.006.166.004.292.01.377.02v1.534a4.45 4.45 0 00-.351-.058 3.467 3.467 0 00-.569-.045c-.477 0-.904.1-1.279.3-.37.197-.664.47-.882.819-.213.345-.319.74-.319 1.182v6.213h-1.509zm8.026-13.09v13.09h-1.509v-13.09h1.509zm6.29 13.295c-.818 0-1.54-.207-2.167-.62-.626-.418-1.116-1.006-1.47-1.764-.353-.763-.53-1.664-.53-2.704 0-1.031.177-1.926.53-2.685.354-.758.846-1.344 1.477-1.758.631-.413 1.359-.62 2.186-.62.639 0 1.144.107 1.515.32.375.209.66.447.856.716.201.264.356.481.467.652h.128v-4.832h1.508v13.09h-1.457V74.85h-.179a9.578 9.578 0 01-.473.677c-.205.269-.496.51-.876.723-.379.209-.884.313-1.515.313zm.205-1.355c.605 0 1.116-.158 1.534-.473.418-.32.735-.76.952-1.323.218-.567.326-1.221.326-1.963 0-.733-.106-1.374-.319-1.924-.213-.554-.529-.984-.946-1.29-.418-.312-.933-.468-1.547-.468-.639 0-1.172.165-1.598.493-.422.323-.739.765-.953 1.323-.208.554-.313 1.176-.313 1.866 0 .7.107 1.334.32 1.905.217.567.537 1.019.959 1.355.426.333.954.499 1.585.499zm9.082-11.94l-.128 9.409h-1.483l-.128-9.41h1.739zm-.869 13.193c-.316 0-.586-.113-.812-.34a1.107 1.107 0 01-.339-.81c0-.316.113-.587.339-.813.226-.226.496-.339.812-.339.315 0 .586.113.811.34.226.225.339.496.339.811 0 .209-.053.4-.16.575-.102.175-.24.316-.415.422a1.098 1.098 0 01-.575.154z"
    fill="#000" />
  <defs>
    <linearGradient id="paint0_linear_6716_19112" x1="176" y1="57" x2="349" y2="57" gradientUnits="userSpaceOnUse">
      <stop stop-color="#FEFDF5" />
      <stop offset="1" stop-color="#FEFDF5" stop-opacity=".52" />
    </linearGradient>
    <filter id="filter0_d_6716_19112" x="0" y="0" width="323" height="123" filterUnits="userSpaceOnUse"
      color-interpolation-filters="sRGB">
      <feFlood flood-opacity="0" result="BackgroundImageFix" />
      <feColorMatrix in="SourceAlpha" values="0 0 0 0 0 0 0 0 0 0 0 0 0 0 0 0 0 0 127 0" result="hardAlpha" />
      <feOffset dy="4" />
      <feGaussianBlur stdDeviation="10" />
      <feComposite in2="hardAlpha" operator="out" />
      <feColorMatrix values="0 0 0 0 0 0 0 0 0 0 0 0 0 0 0 0 0 0 0.12 0" />
      <feBlend in2="BackgroundImageFix" result="effect1_dropShadow_6716_19112" />
      <feBlend in="SourceGraphic" in2="effect1_dropShadow_6716_19112" result="shape" />
    </filter>
  </defs>
</svg>
