<svg width="681" height="22" viewBox="0 0 681 22" fill="none" xmlns="http://www.w3.org/2000/svg">
<path d="M669.853 11.4151C671.225 10.6531 671.225 8.68053 669.853 7.91852L663.971 4.65088C662.638 3.91029 661 4.87422 661 6.39919V12.9345C661 14.4594 662.638 15.4234 663.971 14.6828L669.853 11.4151Z" fill="#D3FFA6"/>
<path d="M6.48 17.16C9.952 17.16 11.856 15.048 12.032 12.264L12.064 11.512H9.472L9.456 12.568C9.36 13.848 8.4 14.984 6.496 14.984C4.24 14.984 3.264 13.496 3.264 11.656V9.128C3.264 7.32 4.24 5.8 6.496 5.8C8.368 5.8 9.36 6.92 9.456 8.2L9.472 9.256H12.064L12.032 8.504C11.856 5.72 9.936 3.624 6.496 3.624C2.704 3.624 0.704 6.088 0.704 9.416V11.336C0.704 14.68 2.704 17.16 6.48 17.16ZM19.7279 17.16C23.3919 17.16 25.4239 14.68 25.4239 11.336V9.416C25.4239 6.088 23.3919 3.624 19.7279 3.624C16.0639 3.624 14.0159 6.088 14.0159 9.416V11.336C14.0159 14.68 16.0479 17.16 19.7279 17.16ZM16.5599 11.656V9.112C16.5599 7.352 17.4879 5.8 19.7279 5.8C21.9519 5.8 22.8799 7.352 22.8799 9.112V11.656C22.8799 13.448 21.9519 14.984 19.7279 14.984C17.4879 14.984 16.5599 13.448 16.5599 11.656ZM27.9164 17H30.2844V8.616L33.5964 17H34.6844L37.9964 8.616V17H40.3644V3.784H37.5324L34.1404 12.456L30.7484 3.784H27.9164V17ZM43.3064 17H45.6744V8.616L48.9864 17H50.0744L53.3864 8.616V17H55.7544V3.784H52.9224L49.5304 12.456L46.1384 3.784H43.3064V17ZM63.8004 17.16C67.4164 17.16 68.9844 15.72 68.9844 12.2V3.784H66.4724V12.472C66.4724 14.312 65.6404 14.984 63.8004 14.984C61.9444 14.984 61.1124 14.312 61.1124 12.472V3.784H58.6004V12.2C58.6004 15.688 60.1684 17.16 63.8004 17.16ZM71.8364 17H74.2364V8.104L79.7884 17H82.2044V3.784H79.8044V12.68L74.2364 3.784H71.8364V17ZM84.7322 17H92.5562V14.76H89.9002V6.024H92.5562V3.784H84.7322V6.024H87.4042V14.76H84.7322V17ZM100.413 17.16C103.885 17.16 105.789 15.048 105.965 12.264L105.997 11.512H103.405L103.389 12.568C103.293 13.848 102.333 14.984 100.429 14.984C98.1731 14.984 97.1971 13.496 97.1971 11.656V9.128C97.1971 7.32 98.1731 5.8 100.429 5.8C102.301 5.8 103.293 6.92 103.389 8.2L103.405 9.256H105.997L105.965 8.504C105.789 5.72 103.869 3.624 100.429 3.624C96.6371 3.624 94.6371 6.088 94.6371 9.416V11.336C94.6371 14.68 96.6371 17.16 100.413 17.16ZM107.059 17H109.683L110.323 14.808H115.459L116.099 17H118.739L114.595 3.784H111.187L107.059 17ZM110.947 12.632L112.771 6.376L112.899 6.04L113.011 6.376L114.835 12.632H110.947ZM122.186 17H124.698V5.976H128.634V3.784H118.25V5.976H122.186V17ZM130.261 17H138.085V14.76H135.429V6.024H138.085V3.784H130.261V6.024H132.933V14.76H130.261V17ZM145.878 17.16C149.542 17.16 151.574 14.68 151.574 11.336V9.416C151.574 6.088 149.542 3.624 145.878 3.624C142.214 3.624 140.166 6.088 140.166 9.416V11.336C140.166 14.68 142.198 17.16 145.878 17.16ZM142.71 11.656V9.112C142.71 7.352 143.638 5.8 145.878 5.8C148.102 5.8 149.03 7.352 149.03 9.112V11.656C149.03 13.448 148.102 14.984 145.878 14.984C143.638 14.984 142.71 13.448 142.71 11.656ZM154.066 17H156.466V8.104L162.018 17H164.434V3.784H162.034V12.68L156.466 3.784H154.066V17ZM172.21 17.16C175.762 17.16 177.282 15.96 177.282 13.192C177.282 11 176.114 10.056 174.034 9.512L171.666 8.872C170.37 8.584 169.666 8.136 169.666 7.24V7.048C169.666 6.136 170.402 5.736 172.002 5.736C173.746 5.736 174.434 6.2 174.434 7.368V7.928H176.978V7.464C176.978 4.984 175.282 3.624 171.986 3.624C168.77 3.624 167.106 4.904 167.106 7.288C167.106 9.24 168.29 10.28 170.162 10.824L172.514 11.48C174.146 11.848 174.706 12.216 174.722 13.272V13.56C174.722 14.6 173.97 15.032 172.258 15.032C170.194 15.032 169.362 14.472 169.362 13V12.296H166.818V12.68C166.818 15.608 168.466 17.16 172.21 17.16ZM180.554 17.16C181.306 17.16 181.898 16.632 181.898 15.816C181.898 14.968 181.306 14.44 180.554 14.44C179.786 14.44 179.178 14.968 179.178 15.816C179.178 16.632 179.786 17.16 180.554 17.16ZM190.899 17H194.243L196.691 6.888L196.723 6.728L196.771 6.888L199.187 17H202.547L205.779 3.784H203.219L200.883 14.152L200.867 14.2L200.851 14.136L198.323 3.784H195.123L192.595 14.168L192.579 14.2V14.168L190.211 3.784H187.651L190.899 17ZM207.35 17H215.174V14.76H212.518V6.024H215.174V3.784H207.35V6.024H210.022V14.76H207.35V17ZM225.591 17H228.119C227.943 16.744 227.927 16.248 227.927 15.816V13.768C227.927 12.376 227.303 11.32 226.007 10.952C227.271 10.568 227.927 9.592 227.927 7.736V7.672C227.927 5 226.503 3.784 223.639 3.784H217.703V17H220.199V12.056H223.591C224.743 12.056 225.399 12.504 225.399 13.64V15.816C225.399 16.248 225.415 16.792 225.591 17ZM220.199 9.944V5.896H223.527C224.791 5.896 225.367 6.36 225.367 7.512V8.216C225.367 9.48 224.791 9.944 223.591 9.944H220.199ZM230.64 17H239.36V14.808H233.136V11.48H238.912V9.304H233.136V5.976H239.36V3.784H230.64V17ZM241.936 17H250.656V14.808H244.432V3.784H241.936V17ZM252.701 17H261.421V14.808H255.197V11.48H260.973V9.304H255.197V5.976H261.421V3.784H252.701V17ZM268.83 17.16C272.382 17.16 273.902 15.96 273.902 13.192C273.902 11 272.734 10.056 270.654 9.512L268.286 8.872C266.99 8.584 266.286 8.136 266.286 7.24V7.048C266.286 6.136 267.022 5.736 268.622 5.736C270.366 5.736 271.054 6.2 271.054 7.368V7.928H273.598V7.464C273.598 4.984 271.902 3.624 268.606 3.624C265.39 3.624 263.726 4.904 263.726 7.288C263.726 9.24 264.91 10.28 266.782 10.824L269.134 11.48C270.766 11.848 271.326 12.216 271.342 13.272V13.56C271.342 14.6 270.59 15.032 268.878 15.032C266.814 15.032 265.982 14.472 265.982 13V12.296H263.438V12.68C263.438 15.608 265.086 17.16 268.83 17.16ZM281.157 17.16C284.709 17.16 286.229 15.96 286.229 13.192C286.229 11 285.061 10.056 282.981 9.512L280.613 8.872C279.317 8.584 278.613 8.136 278.613 7.24V7.048C278.613 6.136 279.349 5.736 280.949 5.736C282.693 5.736 283.381 6.2 283.381 7.368V7.928H285.925V7.464C285.925 4.984 284.229 3.624 280.933 3.624C277.717 3.624 276.053 4.904 276.053 7.288C276.053 9.24 277.237 10.28 279.109 10.824L281.461 11.48C283.093 11.848 283.653 12.216 283.669 13.272V13.56C283.669 14.6 282.917 15.032 281.205 15.032C279.141 15.032 278.309 14.472 278.309 13V12.296H275.765V12.68C275.765 15.608 277.413 17.16 281.157 17.16ZM289.501 17.16C290.253 17.16 290.845 16.632 290.845 15.816C290.845 14.968 290.253 14.44 289.501 14.44C288.733 14.44 288.125 14.968 288.125 15.816C288.125 16.632 288.733 17.16 289.501 17.16ZM297.761 17H300.161V8.104L305.713 17H308.129V3.784H305.729V12.68L300.161 3.784H297.761V17ZM311.073 17H319.793V14.808H313.569V11.48H319.345V9.304H313.569V5.976H319.793V3.784H311.073V17ZM325.346 17H327.858V5.976H331.794V3.784H321.41V5.976H325.346V17ZM336.125 17H339.469L341.917 6.888L341.949 6.728L341.997 6.888L344.413 17H347.773L351.005 3.784H348.445L346.109 14.152L346.093 14.2L346.077 14.136L343.549 3.784H340.349L337.821 14.168L337.805 14.2V14.168L335.437 3.784H332.877L336.125 17ZM358.069 17.16C361.733 17.16 363.765 14.68 363.765 11.336V9.416C363.765 6.088 361.733 3.624 358.069 3.624C354.405 3.624 352.357 6.088 352.357 9.416V11.336C352.357 14.68 354.389 17.16 358.069 17.16ZM354.901 11.656V9.112C354.901 7.352 355.829 5.8 358.069 5.8C360.293 5.8 361.221 7.352 361.221 9.112V11.656C361.221 13.448 360.293 14.984 358.069 14.984C355.829 14.984 354.901 13.448 354.901 11.656ZM374.146 17H376.674C376.498 16.744 376.482 16.248 376.482 15.816V13.768C376.482 12.376 375.858 11.32 374.562 10.952C375.826 10.568 376.482 9.592 376.482 7.736V7.672C376.482 5 375.058 3.784 372.194 3.784H366.258V17H368.754V12.056H372.146C373.298 12.056 373.954 12.504 373.954 13.64V15.816C373.954 16.248 373.97 16.792 374.146 17ZM368.754 9.944V5.896H372.082C373.346 5.896 373.922 6.36 373.922 7.512V8.216C373.922 9.48 373.346 9.944 372.146 9.944H368.754ZM386.443 17H389.547L384.203 10.392L389.547 3.784H386.443L382.171 9.256H381.691V3.784H379.195V17H381.691V11.528H382.171L386.443 17ZM390.918 17H398.742V14.76H396.086V6.024H398.742V3.784H390.918V6.024H393.59V14.76H390.918V17ZM401.271 17H403.671V8.104L409.223 17H411.639V3.784H409.239V12.68L403.671 3.784H401.271V17ZM419.639 17.16C421.527 17.16 422.807 16.44 423.607 15.304L423.943 17H425.415V10.008H419.047V12.04H422.759V12.648C422.503 14.104 421.511 14.984 419.735 14.984C417.559 14.984 416.695 13.496 416.695 11.656V9.112C416.695 7.32 417.527 5.8 419.911 5.8C421.511 5.8 422.695 6.568 422.807 8.008L422.823 8.952H425.415L425.399 8.312C425.223 5.592 423.127 3.624 419.879 3.624C416.055 3.624 414.135 6.104 414.135 9.416V11.4C414.135 14.696 416.071 17.16 419.639 17.16ZM428.978 17.16C429.73 17.16 430.322 16.632 430.322 15.816C430.322 14.968 429.73 14.44 428.978 14.44C428.21 14.44 427.602 14.968 427.602 15.816C427.602 16.632 428.21 17.16 428.978 17.16ZM442.07 17.16C445.622 17.16 447.142 15.96 447.142 13.192C447.142 11 445.974 10.056 443.894 9.512L441.526 8.872C440.23 8.584 439.526 8.136 439.526 7.24V7.048C439.526 6.136 440.262 5.736 441.862 5.736C443.606 5.736 444.294 6.2 444.294 7.368V7.928H446.838V7.464C446.838 4.984 445.142 3.624 441.846 3.624C438.63 3.624 436.966 4.904 436.966 7.288C436.966 9.24 438.15 10.28 440.022 10.824L442.374 11.48C444.006 11.848 444.566 12.216 444.582 13.272V13.56C444.582 14.6 443.83 15.032 442.118 15.032C440.054 15.032 439.222 14.472 439.222 13V12.296H436.678V12.68C436.678 15.608 438.326 17.16 442.07 17.16ZM452.246 17H454.758V5.976H458.694V3.784H448.31V5.976H452.246V17ZM465.454 17.16C469.118 17.16 471.15 14.68 471.15 11.336V9.416C471.15 6.088 469.118 3.624 465.454 3.624C461.79 3.624 459.742 6.088 459.742 9.416V11.336C459.742 14.68 461.774 17.16 465.454 17.16ZM462.286 11.656V9.112C462.286 7.352 463.214 5.8 465.454 5.8C467.678 5.8 468.606 7.352 468.606 9.112V11.656C468.606 13.448 467.678 14.984 465.454 14.984C463.214 14.984 462.286 13.448 462.286 11.656ZM481.53 17H484.058C483.882 16.744 483.866 16.248 483.866 15.816V13.768C483.866 12.376 483.242 11.32 481.946 10.952C483.21 10.568 483.866 9.592 483.866 7.736V7.672C483.866 5 482.442 3.784 479.578 3.784H473.642V17H476.138V12.056H479.53C480.682 12.056 481.338 12.504 481.338 13.64V15.816C481.338 16.248 481.354 16.792 481.53 17ZM476.138 9.944V5.896H479.466C480.73 5.896 481.306 6.36 481.306 7.512V8.216C481.306 9.48 480.73 9.944 479.53 9.944H476.138ZM485.475 17H488.099L488.739 14.808H493.875L494.515 17H497.155L493.011 3.784H489.603L485.475 17ZM489.363 12.632L491.187 6.376L491.315 6.04L491.427 6.376L493.251 12.632H489.363ZM503.744 17.16C505.632 17.16 506.912 16.44 507.712 15.304L508.048 17H509.52V10.008H503.152V12.04H506.864V12.648C506.608 14.104 505.616 14.984 503.84 14.984C501.664 14.984 500.8 13.496 500.8 11.656V9.112C500.8 7.32 501.632 5.8 504.016 5.8C505.616 5.8 506.8 6.568 506.912 8.008L506.928 8.952H509.52L509.504 8.312C509.328 5.592 507.232 3.624 503.984 3.624C500.16 3.624 498.24 6.104 498.24 9.416V11.4C498.24 14.696 500.176 17.16 503.744 17.16ZM512.218 17H520.938V14.808H514.714V11.48H520.49V9.304H514.714V5.976H520.938V3.784H512.218V17ZM524.378 17.16C525.13 17.16 525.722 16.632 525.722 15.816C525.722 14.968 525.13 14.44 524.378 14.44C523.61 14.44 523.002 14.968 523.002 15.816C523.002 16.632 523.61 17.16 524.378 17.16ZM531.159 17H533.783L534.423 14.808H539.559L540.199 17H542.839L538.695 3.784H535.287L531.159 17ZM535.047 12.632L536.871 6.376L536.999 6.04L537.111 6.376L538.935 12.632H535.047ZM546.287 17H548.799V5.976H552.735V3.784H542.351V5.976H546.287V17ZM561.864 17H564.376V5.976H568.312V3.784H557.928V5.976H561.864V17ZM578.099 17H580.611V3.784H578.099V9.304H572.851V3.784H570.355V17H572.851V11.48H578.099V17ZM583.557 17H592.277V14.808H586.053V11.48H591.829V9.304H586.053V5.976H592.277V3.784H583.557V17ZM599.712 17H608.432V14.808H602.208V11.48H607.984V9.304H602.208V5.976H608.432V3.784H599.712V17ZM611.008 17H616.288C619.808 17 621.664 15.24 621.664 11.416V9.368C621.664 5.512 619.84 3.784 616.288 3.784H611.008V17ZM613.504 14.888V5.896H616.304C618.24 5.896 619.104 6.92 619.104 9.176V11.608C619.104 13.864 618.24 14.888 616.32 14.888H613.504ZM629.267 17.16C631.155 17.16 632.435 16.44 633.235 15.304L633.571 17H635.043V10.008H628.675V12.04H632.387V12.648C632.131 14.104 631.139 14.984 629.363 14.984C627.187 14.984 626.323 13.496 626.323 11.656V9.112C626.323 7.32 627.155 5.8 629.539 5.8C631.139 5.8 632.323 6.568 632.435 8.008L632.451 8.952H635.043L635.027 8.312C634.851 5.592 632.755 3.624 629.507 3.624C625.683 3.624 623.763 6.104 623.763 9.416V11.4C623.763 14.696 625.699 17.16 629.267 17.16ZM637.741 17H646.461V14.808H640.237V11.48H646.013V9.304H640.237V5.976H646.461V3.784H637.741V17ZM649.902 17.16C650.654 17.16 651.246 16.632 651.246 15.816C651.246 14.968 650.654 14.44 649.902 14.44C649.134 14.44 648.526 14.968 648.526 15.816C648.526 16.632 649.134 17.16 649.902 17.16Z" fill="black"/>
</svg>
