<svg width="253" height="245" viewBox="0 0 253 245" fill="none" xmlns="http://www.w3.org/2000/svg">
  <path
    d="M0 335c0 6.627 5.373 12 12 12h229c6.627 0 12-5.373 12-12V12.003c0-6.628-5.373-12-12-12H12c-6.627 0-12 5.372-12 12V335z"
    fill="#3434EF" />
  <path d="M0 41.605h253V12c0-6.627-5.373-12-12-12H12C5.373 0 0 5.372 0 12v29.607z" fill="#0E0EAF" />
  <path
    d="M85.074 16.173h2.482l3.018 9.623H88.65l-.466-1.596h-3.74l-.466 1.596h-1.91l3.005-9.623zm2.657 6.443l-1.328-4.556-.082-.244-.093.244-1.328 4.556h2.83zM91.149 24.165h1.945v-6.36H91.15v-1.632h5.697v1.631h-1.934v6.36h1.934v1.632H91.15v-1.631zM105.779 24.642c-.287.443-.66.765-1.118.968a3.806 3.806 0 01-1.55.302c-.722 0-1.281-.167-1.678-.5-.388-.334-.582-.832-.582-1.492s.221-1.165.664-1.514c.451-.35 1.029-.618 1.736-.804l.827-.21c.412-.1.727-.19.944-.268.218-.077.388-.174.513-.29a.578.578 0 00.198-.455v-.059c0-.217-.105-.396-.315-.535-.209-.14-.543-.21-1.002-.21-.544 0-.94.097-1.188.291-.249.194-.373.474-.373.839v.361h-1.759v-.221c0-.893.279-1.573.838-2.039.56-.466 1.379-.699 2.459-.699 1.103 0 1.891.221 2.365.664.482.435.723 1.064.723 1.887v5.138h-1.702v-1.154zm-3.169-.931c0 .256.086.442.257.559.17.116.435.175.792.175.551 0 1.014-.148 1.386-.443.381-.295.61-.703.688-1.223v-.886a.743.743 0 01-.35.373 5.5 5.5 0 01-.78.303l-.233.07-.746.198c-.357.1-.618.217-.781.35a.655.655 0 00-.233.524zM110.605 19.144c.202-.303.478-.552.827-.746.358-.194.8-.291 1.329-.291.613 0 1.141.136 1.584.408.451.264.796.64 1.037 1.13.241.481.361 1.037.361 1.666v1.468c0 .598-.12 1.134-.361 1.607a2.643 2.643 0 01-1.025 1.119c-.443.271-.967.407-1.573.407-.924 0-1.651-.326-2.179-.978v3.495h-1.759V18.224h1.759v.92zm0 3.74c.047.45.206.819.478 1.106.279.28.676.42 1.188.42.56 0 .975-.167 1.247-.501.28-.334.419-.761.419-1.282v-1.235c0-.512-.139-.936-.419-1.27-.272-.341-.687-.512-1.247-.512-.505 0-.897.143-1.176.43-.28.288-.443.657-.49 1.108v1.735zM118.672 19.144c.202-.303.478-.552.828-.746.357-.194.8-.291 1.328-.291.613 0 1.142.136 1.584.408.451.264.797.64 1.037 1.13.241.481.362 1.037.362 1.666v1.468c0 .598-.121 1.134-.362 1.607a2.637 2.637 0 01-1.025 1.119c-.443.271-.967.407-1.573.407-.924 0-1.65-.326-2.179-.978v3.495h-1.759V18.224h1.759v.92zm0 3.74c.047.45.206.819.478 1.106.28.28.676.42 1.188.42.56 0 .975-.167 1.247-.501.28-.334.42-.761.42-1.282v-1.235c0-.512-.14-.936-.42-1.27-.272-.341-.687-.512-1.247-.512-.504 0-.897.143-1.176.43-.28.288-.443.657-.49 1.108v1.735zM126.74 16.173v9.623h-1.76v-9.623h1.76zM129.925 18.224v7.572h-1.759v-7.572h1.759zm-1.934-1.352c0-.256.09-.454.268-.594.179-.148.443-.221.793-.221.349 0 .613.073.792.221.179.14.268.338.268.594 0 .24-.089.435-.268.583-.179.14-.443.21-.792.21-.35 0-.614-.07-.793-.21a.72.72 0 01-.268-.583zM136.164 20.903a1.336 1.336 0 00-.431-.92c-.256-.249-.641-.373-1.154-.373-1.134 0-1.701.606-1.701 1.817v1.189c0 1.195.571 1.794 1.713 1.794.544 0 .936-.12 1.177-.362a1.4 1.4 0 00.408-.932l.023-.5h1.783l-.012.349c-.062.87-.381 1.58-.955 2.132-.568.543-1.387.815-2.459.815-1.142 0-2.008-.302-2.598-.908-.583-.614-.874-1.468-.874-2.563v-.886c0-1.087.291-1.933.874-2.54.59-.605 1.456-.908 2.598-.908.722 0 1.332.128 1.829.384.497.257.874.61 1.131 1.06.264.443.415.944.454 1.503l.012.373h-1.783l-.035-.524zM143.703 24.642c-.287.443-.66.765-1.118.968a3.809 3.809 0 01-1.55.302c-.722 0-1.282-.167-1.678-.5-.388-.334-.582-.832-.582-1.492s.221-1.165.664-1.514c.45-.35 1.029-.618 1.736-.804l.827-.21c.412-.1.726-.19.944-.268.217-.077.388-.174.512-.29a.578.578 0 00.198-.455v-.059c0-.217-.104-.396-.314-.535-.21-.14-.544-.21-1.002-.21-.544 0-.94.097-1.189.291-.248.194-.372.474-.372.839v.361h-1.76v-.221c0-.893.28-1.573.839-2.039.559-.466 1.379-.699 2.459-.699 1.103 0 1.891.221 2.365.664.481.435.722 1.064.722 1.887v5.138h-1.701v-1.154zm-3.169-.931c0 .256.085.442.256.559.171.116.435.175.793.175.551 0 1.013-.148 1.386-.443.381-.295.61-.703.687-1.223v-.886a.737.737 0 01-.349.373 5.474 5.474 0 01-.781.303l-.233.07-.745.198c-.358.1-.618.217-.781.35a.655.655 0 00-.233.524zM151.781 19.738h-2.202v3.495c0 .404.051.68.152.827.109.148.295.221.559.221h1.491v1.515h-1.945c-.746 0-1.266-.179-1.562-.536-.287-.357-.431-.917-.431-1.678v-3.844h-1.759v-1.514h.804c.427-.032.722-.21.885-.536.171-.334.249-.84.233-1.515h1.748c0 1.235-.252 1.919-.757 2.05h2.784v1.515zM154.684 18.224v7.572h-1.759v-7.572h1.759zm-1.934-1.352c0-.256.09-.454.268-.594.179-.148.443-.221.793-.221.349 0 .613.073.792.221.179.14.268.338.268.594 0 .24-.089.435-.268.583-.179.14-.443.21-.792.21-.35 0-.614-.07-.793-.21a.72.72 0 01-.268-.583zM159.257 25.912c-1.119 0-1.969-.302-2.552-.908-.575-.614-.862-1.468-.862-2.563v-.862c0-1.095.287-1.946.862-2.552.583-.613 1.433-.92 2.552-.92 1.126 0 1.977.307 2.552.92.574.606.862 1.457.862 2.552v.862c0 1.095-.288 1.95-.862 2.563-.575.605-1.426.908-2.552.908zm-1.62-3.32c0 .583.125 1.033.373 1.352.257.31.672.466 1.247.466.575 0 .986-.156 1.235-.466.256-.319.384-.77.384-1.352v-1.165c0-.575-.128-1.021-.384-1.34-.249-.318-.66-.477-1.235-.477-.575 0-.99.159-1.247.477-.248.319-.373.765-.373 1.34v1.165zM165.573 19.377c.241-.389.552-.695.932-.92.389-.233.843-.35 1.363-.35.777 0 1.379.264 1.806.792.435.52.653 1.227.653 2.12v4.777h-1.748v-4.578c0-1.08-.478-1.62-1.433-1.62-.59 0-1.002.171-1.235.513a2.035 2.035 0 00-.338 1.165v4.52h-1.748v-7.572h1.748v1.153z"
    fill="#fff" />
  <path
    d="M237.188 14.15l2.497 2.497-3.178 3.177a1.39 1.39 0 000 1.967l3.178 3.177-2.497 2.496-3.177-3.177a1.392 1.392 0 00-1.968 0l-3.177 3.177-2.497-2.496 3.178-3.177a1.39 1.39 0 000-1.967l-3.178-3.177 2.497-2.497 3.177 3.178a1.392 1.392 0 001.968 0l3.177-3.178z"
    fill="#FEFDF5" />
  <ellipse cx="23.304" cy="79.886" rx="13.316" ry="13.314" fill="#00E3AA" />
  <g opacity=".3">
    <path fill="#00E3AA" d="M15.816 73.227h14.98v14.978h-14.98z" />
    <path d="M18.313 83.108h4.993l2.497 2.497v-2.497h3.121v-6.864-.625H17.689V83.108h.624z" fill="#000" />
    <path fill-rule="evenodd" clip-rule="evenodd"
      d="M28.925 75.618h.561v7.49c0 .31-.251.561-.562.561h-2.559v1.935a.562.562 0 01-.959.397l-2.332-2.332H17.69a.562.562 0 01-.563-.561v-7.49c0-.31.252-.561.562-.561h11.235v.561zm-.562.562v6.366h-2.56a.562.562 0 00-.561.561v1.14l-1.538-1.537a.562.562 0 00-.397-.164H18.25V76.18h10.112zm.562-.562v-.561a.562.562 0 01.561.561h-.561z"
      fill="#000" />
    <path fill-rule="evenodd" clip-rule="evenodd"
      d="M21.886 80.01l.231.37c.049.078.169.186.39.276.214.087.49.143.8.143.31 0 .586-.056.8-.144.221-.09.341-.197.39-.275l.231-.37.741.463-.231.37c-.179.286-.479.49-.801.622-.33.134-.72.208-1.13.208-.41 0-.8-.074-1.13-.208-.322-.132-.622-.336-.801-.622l-.232-.37.742-.463z"
      fill="#000" />
    <path
      d="M22.059 78.114a.624.624 0 11-1.248 0 .624.624 0 011.248 0zM25.803 78.114a.624.624 0 11-1.248 0 .624.624 0 011.248 0z"
      fill="#000" />
  </g>
  <rect opacity=".8" x="91.545" y="110.984" width="151.467" height="46.599" rx="8" fill="#E6E3D3" />
  <rect x="118.174" y="120.969" width="114.849" height="6.658" rx="2" fill="#575757" />
  <rect x="101.531" y="130.957" width="131.493" height="6.658" rx="2" fill="#575757" />
  <rect x="129.828" y="140.941" width="103.197" height="6.658" rx="2" fill="#575757" />
  <rect x="43.277" y="61.58" width="177.266" height="36.614" rx="8" fill="#00E3AA" />
  <rect opacity=".3" x="53.264" y="71.564" width="120.674" height="6.658" rx="2" fill="#000" />
  <rect opacity=".3" x="53.264" y="81.553" width="157.293" height="6.658" rx="2" fill="#000" />
  <ellipse cx="23.304" cy="188.283" rx="13.316" ry="13.314" fill="#00E3AA" />
  <g opacity=".3">
    <path fill="#00E3AA" d="M15.818 181.625h14.98v14.978h-14.98z" />
    <path d="M18.315 191.507h4.993l2.497 2.496v-2.496h3.121V184.642v-.624H17.69V191.507h.625z" fill="#000" />
    <path fill-rule="evenodd" clip-rule="evenodd"
      d="M28.927 184.017h.561v7.489c0 .31-.251.562-.562.562h-2.559v1.934a.562.562 0 01-.959.397l-2.332-2.331h-5.384a.563.563 0 01-.563-.562v-7.489c0-.31.252-.562.562-.562h11.235v.562zm-.562.561v6.366h-2.56a.562.562 0 00-.561.562v1.14l-1.538-1.537a.56.56 0 00-.397-.165h-5.056v-6.366h10.112zm.562-.561v-.562a.56.56 0 01.561.562h-.561z"
      fill="#000" />
    <path fill-rule="evenodd" clip-rule="evenodd"
      d="M21.888 188.408l.231.371c.049.077.169.185.39.275.214.087.49.143.8.143.31 0 .586-.056.8-.143.221-.09.341-.198.39-.275l.231-.371.741.463-.231.371c-.179.286-.478.49-.801.621-.33.134-.72.208-1.13.208-.41 0-.8-.074-1.13-.208-.322-.131-.622-.335-.801-.621l-.232-.371.742-.463z"
      fill="#000" />
    <path
      d="M22.06 186.513a.625.625 0 11-1.248-.001.625.625 0 011.249.001zM25.805 186.513a.625.625 0 11-1.249-.001.625.625 0 011.249.001z"
      fill="#000" />
  </g>
  <rect x="43.279" y="169.977" width="177.266" height="36.614" rx="8" fill="#00E3AA" />
  <rect opacity=".3" x="53.266" y="179.961" width="120.674" height="6.658" rx="2" fill="#000" />
  <rect opacity=".3" x="53.266" y="189.949" width="157.293" height="6.658" rx="2" fill="#000" />
</svg>
