<svg width="560" height="184" viewBox="0 0 560 184" fill="none" xmlns="http://www.w3.org/2000/svg">
<path d="M269.01 74.7309C270.341 73.9605 270.341 72.0395 269.01 71.2691L256.002 63.738C254.669 62.9661 253 63.9282 253 65.4689L253 80.5311C253 82.0718 254.669 83.0339 256.002 82.262L269.01 74.7309Z" fill="black"/>
<path d="M0 183H86.5C117.152 183 142 158.152 142 127.5V127.5C142 96.8482 166.848 72 197.5 72H267" stroke="black" stroke-width="2" stroke-dasharray="6 6"/>
<rect x="276" width="283.409" height="147.338" rx="24" fill="#00E3AA"/>
<rect x="293.336" y="78.0024" width="248.742" height="52.0017" rx="8" fill="#0E0EAF"/>
<rect x="305.469" y="86.6694" width="115.271" height="34.6678" rx="4" fill="#3434EF"/>
<path d="M321.027 99.2532H319.062V110.513H321.027V111.047H318.455V98.7314H321.027V99.2532Z" fill="#FEFDF5"/>
<path d="M324.086 107.553V101.243C323.439 101.672 322.658 101.886 321.744 101.886V100.151C322.27 100.151 322.739 100.082 323.152 99.9448C323.564 99.8073 323.928 99.5525 324.244 99.1804H325.979V107.553H328.296V109.203H321.768V107.553H324.086Z" fill="#FEFDF5"/>
<path d="M329.989 109.324C329.689 109.324 329.439 109.231 329.236 109.045C329.042 108.859 328.945 108.612 328.945 108.305C328.945 107.989 329.042 107.739 329.236 107.553C329.439 107.359 329.689 107.261 329.989 107.261C330.28 107.261 330.522 107.359 330.717 107.553C330.911 107.739 331.008 107.989 331.008 108.305C331.008 108.612 330.911 108.859 330.717 109.045C330.522 109.231 330.28 109.324 329.989 109.324Z" fill="#FEFDF5"/>
<path d="M335.869 109.324C334.575 109.324 333.572 108.94 332.86 108.171C332.156 107.395 331.804 106.307 331.804 104.908V103.451C331.804 102.06 332.156 100.98 332.86 100.212C333.564 99.4433 334.567 99.0591 335.869 99.0591C337.163 99.0591 338.162 99.4473 338.866 100.224C339.57 100.992 339.922 102.072 339.922 103.464V104.92C339.922 106.311 339.57 107.395 338.866 108.171C338.162 108.94 337.163 109.324 335.869 109.324ZM333.733 105.15C333.733 105.482 333.762 105.773 333.818 106.024L337.495 101.401C337.139 100.932 336.597 100.697 335.869 100.697C335.157 100.697 334.623 100.92 334.267 101.364C333.911 101.801 333.733 102.424 333.733 103.233V105.15ZM334.243 107.007C334.599 107.46 335.141 107.686 335.869 107.686C336.573 107.686 337.103 107.468 337.459 107.031C337.814 106.586 337.992 105.955 337.992 105.138V103.221C337.992 102.922 337.968 102.647 337.92 102.396L334.243 107.007Z" fill="#FEFDF5"/>
<path d="M341.002 109.943C341.302 109.878 341.569 109.757 341.803 109.579C342.046 109.409 342.212 109.195 342.301 108.936C342.212 109.065 342.111 109.162 341.997 109.227C341.892 109.292 341.759 109.324 341.597 109.324C341.354 109.324 341.148 109.235 340.978 109.057C340.816 108.879 340.735 108.629 340.735 108.305C340.735 107.998 340.833 107.751 341.027 107.565C341.229 107.371 341.48 107.274 341.779 107.274C342.111 107.274 342.365 107.387 342.543 107.613C342.729 107.832 342.822 108.131 342.822 108.511C342.822 108.956 342.661 109.385 342.337 109.797C342.014 110.21 341.569 110.558 341.002 110.841V109.943Z" fill="#FEFDF5"/>
<path d="M346.901 107.407C346.901 106.485 347.111 105.745 347.532 105.187C347.952 104.62 348.656 104.22 349.643 103.985L351.026 103.621C351.657 103.46 352.11 103.265 352.385 103.039C352.668 102.812 352.81 102.465 352.81 101.995V101.874C352.81 101.47 352.66 101.174 352.361 100.988C352.062 100.794 351.593 100.697 350.953 100.697C350.225 100.697 349.704 100.827 349.388 101.085C349.081 101.344 348.927 101.753 348.927 102.311V102.748H346.986V102.42C346.986 101.336 347.309 100.507 347.956 99.9327C348.604 99.3503 349.595 99.0591 350.929 99.0591C352.183 99.0591 353.134 99.3139 353.781 99.8235C354.428 100.333 354.751 101.085 354.751 102.08C354.751 102.897 354.525 103.557 354.072 104.058C353.627 104.552 352.996 104.891 352.179 105.077L350.687 105.49C350.136 105.627 349.728 105.785 349.461 105.963C349.194 106.133 349.02 106.339 348.939 106.582C348.866 106.817 348.83 107.14 348.83 107.553H354.739V109.203H346.901V107.407Z" fill="#FEFDF5"/>
<path d="M356.898 109.324C356.599 109.324 356.348 109.231 356.146 109.045C355.952 108.859 355.855 108.612 355.855 108.305C355.855 107.989 355.952 107.739 356.146 107.553C356.348 107.359 356.599 107.261 356.898 107.261C357.19 107.261 357.432 107.359 357.626 107.553C357.821 107.739 357.918 107.989 357.918 108.305C357.918 108.612 357.821 108.859 357.626 109.045C357.432 109.231 357.19 109.324 356.898 109.324Z" fill="#FEFDF5"/>
<path d="M361.364 107.553V101.243C360.717 101.672 359.936 101.886 359.022 101.886V100.151C359.548 100.151 360.017 100.082 360.43 99.9448C360.842 99.8073 361.206 99.5525 361.522 99.1804H363.257V107.553H365.574V109.203H359.046V107.553H361.364Z" fill="#FEFDF5"/>
<path d="M366.502 109.943C366.802 109.878 367.068 109.757 367.303 109.579C367.546 109.409 367.712 109.195 367.801 108.936C367.712 109.065 367.61 109.162 367.497 109.227C367.392 109.292 367.259 109.324 367.097 109.324C366.854 109.324 366.648 109.235 366.478 109.057C366.316 108.879 366.235 108.629 366.235 108.305C366.235 107.998 366.332 107.751 366.526 107.565C366.729 107.371 366.979 107.274 367.279 107.274C367.61 107.274 367.865 107.387 368.043 107.613C368.229 107.832 368.322 108.131 368.322 108.511C368.322 108.956 368.16 109.385 367.837 109.797C367.513 110.21 367.068 110.558 366.502 110.841V109.943Z" fill="#FEFDF5"/>
<path d="M376.198 109.324C374.856 109.324 373.869 109.077 373.238 108.584C372.607 108.083 372.279 107.274 372.255 106.157V105.951H374.16V106.279C374.192 106.813 374.362 107.181 374.67 107.383C374.985 107.585 375.487 107.686 376.174 107.686C376.918 107.686 377.436 107.593 377.727 107.407C378.027 107.221 378.176 106.922 378.176 106.509V106.048C378.176 105.765 378.12 105.547 378.006 105.393C377.893 105.231 377.695 105.114 377.412 105.041C377.137 104.968 376.749 104.932 376.247 104.932H374.912V103.282H376.235C376.914 103.282 377.388 103.201 377.655 103.039C377.921 102.869 378.055 102.598 378.055 102.226V101.801C378.055 101.421 377.905 101.142 377.606 100.964C377.315 100.786 376.842 100.697 376.186 100.697C375.572 100.697 375.11 100.794 374.803 100.988C374.504 101.174 374.342 101.522 374.318 102.032V102.311H372.413V102.129C372.437 101.061 372.757 100.285 373.371 99.7992C373.994 99.3058 374.928 99.0591 376.174 99.0591C377.509 99.0591 378.476 99.322 379.074 99.8477C379.673 100.374 379.972 101.037 379.972 101.838V101.959C379.988 102.509 379.883 102.97 379.657 103.342C379.438 103.706 379.098 103.949 378.637 104.07C379.131 104.2 379.495 104.459 379.729 104.847C379.972 105.235 380.093 105.72 380.093 106.303V106.424C380.093 107.395 379.774 108.123 379.135 108.608C378.504 109.086 377.525 109.324 376.198 109.324Z" fill="#FEFDF5"/>
<path d="M382.244 109.324C381.945 109.324 381.694 109.231 381.492 109.045C381.298 108.859 381.201 108.612 381.201 108.305C381.201 107.989 381.298 107.739 381.492 107.553C381.694 107.359 381.945 107.261 382.244 107.261C382.535 107.261 382.778 107.359 382.972 107.553C383.166 107.739 383.263 107.989 383.263 108.305C383.263 108.612 383.166 108.859 382.972 109.045C382.778 109.231 382.535 109.324 382.244 109.324Z" fill="#FEFDF5"/>
<path d="M390.97 105.757H392.086V107.407H390.97V109.203H389.077V107.407H384.041V105.66L389.101 99.1804H390.97V105.757ZM389.077 105.757V101.692L385.789 105.757H389.077Z" fill="#FEFDF5"/>
<path d="M397.02 109.324C396.721 109.324 396.47 109.231 396.268 109.045C396.074 108.859 395.977 108.612 395.977 108.305C395.977 107.989 396.074 107.739 396.268 107.553C396.47 107.359 396.721 107.261 397.02 107.261C397.312 107.261 397.554 107.359 397.748 107.553C397.943 107.739 398.04 107.989 398.04 108.305C398.04 108.612 397.943 108.859 397.748 109.045C397.554 109.231 397.312 109.324 397.02 109.324Z" fill="#FEFDF5"/>
<path d="M400.054 109.324C399.754 109.324 399.504 109.231 399.302 109.045C399.107 108.859 399.01 108.612 399.01 108.305C399.01 107.989 399.107 107.739 399.302 107.553C399.504 107.359 399.754 107.261 400.054 107.261C400.345 107.261 400.588 107.359 400.782 107.553C400.976 107.739 401.073 107.989 401.073 108.305C401.073 108.612 400.976 108.859 400.782 109.045C400.588 109.231 400.345 109.324 400.054 109.324Z" fill="#FEFDF5"/>
<path d="M403.087 109.324C402.788 109.324 402.537 109.231 402.335 109.045C402.141 108.859 402.044 108.612 402.044 108.305C402.044 107.989 402.141 107.739 402.335 107.553C402.537 107.359 402.788 107.261 403.087 107.261C403.378 107.261 403.621 107.359 403.815 107.553C404.009 107.739 404.106 107.989 404.106 108.305C404.106 108.612 404.009 108.859 403.815 109.045C403.621 109.231 403.378 109.324 403.087 109.324Z" fill="#FEFDF5"/>
<path d="M404.524 110.525H406.49V99.2653H404.524V98.7314H407.096V111.047H404.524V110.525Z" fill="#FEFDF5"/>
<rect x="427.674" y="86.6687" width="11.267" height="34.6678" rx="3" fill="#3434EF"/>
<rect x="445.874" y="86.6687" width="11.267" height="34.6678" rx="3" fill="#3434EF"/>
<rect x="464.074" y="86.6687" width="11.267" height="34.6678" rx="3" fill="#3434EF"/>
<rect x="482.274" y="86.6687" width="11.267" height="34.6678" rx="3" fill="#3434EF"/>
<rect x="500.475" y="86.6687" width="11.267" height="34.6678" rx="3" fill="#3434EF"/>
<rect x="518.679" y="86.6687" width="11.267" height="34.6678" rx="3" fill="#3434EF"/>
<rect x="293.336" y="17.3325" width="248.742" height="52.0017" rx="8" fill="#0E0EAF"/>
<rect x="305.469" y="25.9985" width="60.6687" height="34.6678" rx="4" fill="#3434EF"/>
<path d="M321.027 38.5823H319.062V49.8424H321.027V50.3763H318.455V38.0605H321.027V38.5823Z" fill="#FEFDF5"/>
<path d="M324.363 40.1718H321.378V38.5095H329.253V40.1718H326.268V48.532H324.363V40.1718Z" fill="#FEFDF5"/>
<path d="M328.316 44.1153C328.316 42.9828 328.624 42.1011 329.239 41.4701C329.862 40.8392 330.78 40.5237 331.993 40.5237C333.125 40.5237 333.995 40.8392 334.602 41.4701C335.208 42.093 335.512 42.9909 335.512 44.1638V45.0374H330.209V45.2195C330.209 46.4652 330.808 47.088 332.005 47.088C332.466 47.088 332.81 46.9991 333.037 46.8211C333.271 46.6431 333.413 46.4086 333.461 46.1173L333.485 45.8383H335.463L335.451 45.9596C335.378 46.7928 335.047 47.4521 334.456 47.9374C333.874 48.4147 333.053 48.6533 331.993 48.6533C330.772 48.6533 329.853 48.3378 329.239 47.7069C328.624 47.0678 328.316 46.178 328.316 45.0374V44.1153ZM333.619 43.7149L333.607 43.3873C333.534 42.9666 333.356 42.6471 333.073 42.4287C332.79 42.2022 332.41 42.0889 331.932 42.0889C331.382 42.0889 330.97 42.2346 330.695 42.5258C330.42 42.8089 330.262 43.2053 330.221 43.7149H333.619Z" fill="#FEFDF5"/>
<path d="M338.276 44.4672L335.703 40.645H337.912L339.441 43.0718L340.969 40.645H343.069L340.484 44.4793L343.263 48.532H341.054L339.331 45.8747L337.584 48.532H335.485L338.276 44.4672Z" fill="#FEFDF5"/>
<path d="M349.255 42.2224H346.961V45.8625C346.961 46.2832 347.014 46.5703 347.119 46.724C347.232 46.8777 347.427 46.9546 347.702 46.9546H349.255V48.532H347.228C346.452 48.532 345.91 48.3459 345.603 47.9738C345.303 47.6017 345.154 47.0193 345.154 46.2266V42.2224H343.321V40.645H344.159C344.604 40.6127 344.911 40.4266 345.081 40.0869C345.259 39.739 345.34 39.2133 345.323 38.5095H347.143C347.143 39.7957 346.881 40.5075 346.355 40.645H349.255V42.2224Z" fill="#FEFDF5"/>
<path d="M349.78 49.8545H351.745V38.5944H349.78V38.0605H352.352V50.3763H349.78V49.8545Z" fill="#FEFDF5"/>
<rect x="427.674" y="25.9995" width="11.267" height="34.6678" rx="3" fill="#3434EF"/>
<rect x="445.874" y="25.9995" width="11.267" height="34.6678" rx="3" fill="#3434EF"/>
<rect x="464.074" y="25.9995" width="11.267" height="34.6678" rx="3" fill="#3434EF"/>
<rect x="373.074" y="25.9995" width="11.267" height="34.6678" rx="3" fill="#3434EF"/>
<rect x="391.273" y="25.9995" width="11.267" height="34.6678" rx="3" fill="#3434EF"/>
<rect x="409.474" y="25.9995" width="11.267" height="34.6678" rx="3" fill="#3434EF"/>
<rect x="482.274" y="25.9995" width="11.267" height="34.6678" rx="3" fill="#3434EF"/>
<rect x="500.475" y="25.9995" width="11.267" height="34.6678" rx="3" fill="#3434EF"/>
<rect x="518.679" y="25.9995" width="11.267" height="34.6678" rx="3" fill="#3434EF"/>
</svg>
