<svg width="283" height="184" viewBox="0 0 283 184" fill="none" xmlns="http://www.w3.org/2000/svg">
  <rect width="283" height="147" rx="24" fill="#00E3AA" />
  <rect x="17.311" y="77.824" width="248.382" height="51.882" rx="8" fill="#0E0EAF" />
  <rect x="29.426" y="86.471" width="115.104" height="34.588" rx="4" fill="#3434EF" />
  <path
    d="M44.961 99.026h-1.963v11.235h1.963v.532h-2.568V98.506h2.568v.52zM48.015 107.307v-6.295c-.646.428-1.425.641-2.338.641v-1.73c.525 0 .993-.07 1.405-.207a2.431 2.431 0 001.09-.762h1.733v8.353h2.315v1.646H45.7v-1.646h2.314zM53.91 109.074a1.07 1.07 0 01-.752-.278c-.194-.186-.29-.432-.29-.739 0-.314.096-.565.29-.75.202-.194.453-.291.751-.291.291 0 .534.097.727.291.194.185.291.436.291.75 0 .307-.097.553-.29.739a1.012 1.012 0 01-.728.278zM59.781 109.074c-1.292 0-2.294-.383-3.005-1.15-.702-.775-1.054-1.86-1.054-3.256v-1.453c0-1.388.352-2.466 1.054-3.232.703-.767 1.705-1.15 3.005-1.15 1.293 0 2.29.387 2.993 1.162.703.767 1.054 1.844 1.054 3.232v1.453c0 1.388-.351 2.469-1.054 3.244-.703.767-1.7 1.15-2.993 1.15zm-2.132-4.164c0 .331.028.621.085.871l3.67-4.612c-.355-.468-.896-.702-1.623-.702-.71 0-1.244.222-1.599.666-.355.436-.533 1.057-.533 1.864v1.913zm.509 1.852c.355.452.896.678 1.623.678.703 0 1.232-.218 1.587-.654.356-.444.534-1.073.534-1.888v-1.913c0-.299-.025-.573-.073-.823l-3.671 4.6zM64.907 109.692c.3-.065.566-.186.8-.363.242-.17.408-.384.497-.642a.931.931 0 01-.303.29.748.748 0 01-.4.097.82.82 0 01-.618-.266c-.161-.178-.242-.428-.242-.751 0-.306.097-.552.29-.738.203-.194.453-.291.752-.291.33 0 .585.113.763.339.186.218.279.517.279.896 0 .444-.162.872-.485 1.283-.323.412-.767.759-1.333 1.042v-.896zM70.797 107.162c0-.92.21-1.659.63-2.216.42-.565 1.123-.964 2.108-1.198l1.382-.363c.63-.162 1.082-.356 1.357-.582.282-.226.424-.573.424-1.041v-.121c0-.403-.15-.698-.448-.883-.3-.194-.768-.291-1.406-.291-.727 0-1.248.129-1.563.387-.307.259-.46.666-.46 1.223v.436h-1.939v-.327c0-1.081.323-1.909.97-2.482.645-.58 1.635-.871 2.968-.871 1.252 0 2.2.254 2.847.762.646.509.97 1.259.97 2.252 0 .815-.227 1.473-.68 1.973-.443.493-1.073.832-1.89 1.017l-1.49.412c-.549.137-.957.294-1.223.472-.267.169-.44.375-.521.617-.073.234-.11.557-.11.969h5.901v1.646h-7.827v-1.791zM80.78 109.074a1.07 1.07 0 01-.75-.278c-.195-.186-.292-.432-.292-.739 0-.314.097-.565.291-.75.202-.194.453-.291.751-.291.291 0 .534.097.727.291.194.185.291.436.291.75 0 .307-.097.553-.29.739a1.012 1.012 0 01-.728.278zM85.24 107.307v-6.295c-.647.428-1.426.641-2.339.641v-1.73c.525 0 .994-.07 1.406-.207a2.43 2.43 0 001.09-.762h1.733v8.353h2.314v1.646h-6.519v-1.646h2.315zM90.37 109.692c.3-.065.566-.186.8-.363.242-.17.408-.384.497-.642a.93.93 0 01-.303.29.748.748 0 01-.4.097.82.82 0 01-.618-.266c-.162-.178-.242-.428-.242-.751 0-.306.097-.552.29-.738.203-.194.453-.291.752-.291.33 0 .585.113.763.339.186.218.279.517.279.896 0 .444-.162.872-.485 1.283-.323.412-.767.759-1.333 1.042v-.896zM100.053 109.074c-1.341 0-2.327-.246-2.957-.738-.63-.501-.957-1.308-.981-2.421v-.206h1.902v.327c.032.532.202.9.509 1.101.315.202.816.303 1.502.303.743 0 1.26-.093 1.551-.278.299-.186.449-.485.449-.896v-.46c0-.283-.057-.501-.17-.654-.113-.161-.311-.278-.594-.351-.274-.073-.662-.109-1.163-.109h-1.333v-1.646h1.321c.678 0 1.151-.081 1.418-.243.266-.169.399-.439.399-.811v-.423c0-.38-.149-.658-.448-.836-.291-.177-.763-.266-1.418-.266-.613 0-1.074.097-1.38.291-.3.185-.461.532-.485 1.041v.278h-1.903v-.181c.024-1.066.344-1.841.957-2.325.623-.492 1.555-.738 2.799-.738 1.333 0 2.298.262 2.896.787.598.524.897 1.186.897 1.985v.121c.016.549-.089 1.009-.315 1.38-.218.363-.558.605-1.018.726.493.13.856.388 1.09.775.243.388.364.872.364 1.453v.121c0 .968-.319 1.695-.957 2.179-.63.476-1.608.714-2.932.714zM106.09 109.074c-.299 0-.55-.093-.752-.278-.193-.186-.29-.432-.29-.739 0-.314.097-.565.29-.75.202-.194.453-.291.752-.291.29 0 .533.097.727.291.193.185.29.436.29.75 0 .307-.097.553-.29.739a1.014 1.014 0 01-.727.278zM114.803 105.515h1.114v1.647h-1.114v1.791h-1.891v-1.791h-5.028v-1.744l5.053-6.464h1.866v6.561zm-1.891 0v-4.055l-3.283 4.055h3.283zM120.844 109.074a1.07 1.07 0 01-.751-.278c-.194-.186-.291-.432-.291-.739 0-.314.097-.565.291-.75.202-.194.452-.291.751-.291.291 0 .533.097.727.291.194.185.291.436.291.75 0 .307-.097.553-.291.739a1.012 1.012 0 01-.727.278zM123.873 109.074c-.298 0-.549-.093-.751-.278-.194-.186-.291-.432-.291-.739 0-.314.097-.565.291-.75.202-.194.453-.291.751-.291.291 0 .534.097.727.291.194.185.291.436.291.75 0 .307-.097.553-.291.739a1.01 1.01 0 01-.727.278zM126.902 109.074c-.298 0-.549-.093-.751-.278-.194-.186-.291-.432-.291-.739 0-.314.097-.565.291-.75.202-.194.453-.291.751-.291.291 0 .534.097.727.291.194.185.291.436.291.75 0 .307-.097.553-.291.739a1.01 1.01 0 01-.727.278zM128.337 110.273h1.963V99.039h-1.963v-.533h2.569v12.287h-2.569v-.52z"
    fill="#FEFDF5" />
  <rect x="151.453" y="86.471" width="11.251" height="34.588" rx="3" fill="#3434EF" />
  <rect x="169.629" y="86.471" width="11.251" height="34.588" rx="3" fill="#3434EF" />
  <rect x="187.801" y="86.471" width="11.251" height="34.588" rx="3" fill="#3434EF" />
  <rect x="205.975" y="86.471" width="11.251" height="34.588" rx="3" fill="#3434EF" />
  <rect x="224.15" y="86.471" width="11.251" height="34.588" rx="3" fill="#3434EF" />
  <rect x="242.328" y="86.471" width="11.251" height="34.588" rx="3" fill="#3434EF" />
  <rect x="17.311" y="17.291" width="248.382" height="51.882" rx="8" fill="#0E0EAF" />
  <rect x="29.426" y="25.938" width="60.581" height="34.588" rx="4" fill="#3434EF" />
  <path
    d="M44.961 38.493h-1.963v11.234h1.963v.533h-2.568V37.973h2.568v.52zM48.292 40.08h-2.98v-1.66h7.863v1.66h-2.98v8.34h-1.903v-8.34zM52.24 44.014c0-1.13.307-2.01.92-2.64.623-.63 1.54-.944 2.751-.944 1.13 0 2 .315 2.605.944.606.622.909 1.518.909 2.688v.872H54.13v.181c0 1.243.598 1.864 1.793 1.864.46 0 .804-.088 1.03-.266.234-.177.375-.412.424-.702l.024-.279h1.975l-.012.122c-.073.83-.404 1.489-.993 1.973-.582.476-1.402.714-2.46.714-1.22 0-2.136-.315-2.75-.944-.614-.638-.921-1.526-.921-2.663v-.92zm5.294-.4l-.012-.327c-.072-.42-.25-.738-.533-.956-.282-.226-.662-.34-1.139-.34-.549 0-.96.146-1.236.437-.274.282-.432.678-.472 1.186h3.392zM62.185 44.365l-2.569-3.814h2.205l1.527 2.421 1.526-2.42h2.097l-2.581 3.825 2.774 4.043H64.96l-1.72-2.651-1.745 2.651h-2.096l2.787-4.055zM73.148 42.125h-2.29v3.632c0 .42.052.706.157.86.113.153.307.23.582.23h1.55v1.573h-2.023c-.775 0-1.316-.186-1.623-.557-.3-.371-.449-.952-.449-1.743v-3.995h-1.83v-1.574h.837c.444-.032.751-.218.92-.557.178-.347.26-.871.243-1.573h1.818c0 1.283-.263 1.993-.788 2.13h2.896v1.574zM73.672 49.74h1.963V38.505h-1.963v-.532h2.569V50.26h-2.569v-.52z"
    fill="#FEFDF5" />
  <rect x="151.453" y="25.938" width="11.251" height="34.588" rx="3" fill="#3434EF" />
  <rect x="169.629" y="25.938" width="11.251" height="34.588" rx="3" fill="#3434EF" />
  <rect x="187.801" y="25.938" width="11.251" height="34.588" rx="3" fill="#3434EF" />
  <rect x="96.934" y="25.938" width="11.251" height="34.588" rx="3" fill="#3434EF" />
  <rect x="115.105" y="25.938" width="11.251" height="34.588" rx="3" fill="#3434EF" />
  <rect x="133.281" y="25.938" width="11.251" height="34.588" rx="3" fill="#3434EF" />
  <rect x="205.975" y="25.938" width="11.251" height="34.588" rx="3" fill="#3434EF" />
  <rect x="224.15" y="25.938" width="11.251" height="34.588" rx="3" fill="#3434EF" />
  <rect x="242.328" y="25.938" width="11.251" height="34.588" rx="3" fill="#3434EF" />
</svg>
