<svg width="299" height="245" viewBox="0 0 299 245" fill="none" xmlns="http://www.w3.org/2000/svg">
  <g filter="url(#filter0_d_6733_20109)">
    <path
      d="M20 11.214C20 5.021 25.014 0 31.2 0h236.6c6.186 0 11.2 5.02 11.2 11.214v291.572c0 6.193-5.014 11.214-11.2 11.214H31.2c-6.186 0-11.2-5.021-11.2-11.214V11.214z"
      fill="#FEFDF5" />
  </g>
  <path
    d="M36.8 67.986a5.604 5.604 0 015.6-5.607h214.201c3.093 0 5.6 2.51 5.6 5.607v16.822a5.603 5.603 0 01-5.6 5.607h-214.2c-3.093 0-5.6-2.51-5.6-5.608V67.987z"
    fill="#fff" />
  <path fill-rule="evenodd" clip-rule="evenodd"
    d="M256.601 63.08h-214.2a4.903 4.903 0 00-4.9 4.906v16.822a4.903 4.903 0 004.9 4.906h214.2c2.706 0 4.9-2.197 4.9-4.906V67.986a4.903 4.903 0 00-4.9-4.906zm-214.2-.701c-3.093 0-5.6 2.51-5.6 5.607v16.822a5.604 5.604 0 005.6 5.607h214.2c3.093 0 5.6-2.51 5.6-5.608V67.987a5.603 5.603 0 00-5.6-5.607h-214.2z"
    fill="#E6E3D3" />
  <path
    d="M74.18 44.885h.336v.984l.78-.412.169.286-.764.403.764.404-.168.286-.781-.412v.984h-.336v-.984l-.782.412-.167-.286.764-.404-.764-.403.168-.286.78.412v-.984zM72.483 46.398v1.094h-1.588v2.523c0 .597.143.757.512.757h1.076v1.093H71.08c-1.126 0-1.437-.563-1.437-1.598v-2.775h-1.268v-1.094h.58c.646-.05.823-.555.806-1.48h1.26c0 .732-.126 1.37-.546 1.48h2.008zM64.502 46.398v.832a1.87 1.87 0 011.655-.916c1.142 0 1.772.832 1.772 2.102v3.449h-1.26v-3.306c0-.757-.319-1.169-1.033-1.169-.949 0-1.134.723-1.134 1.211v3.264h-1.26v-5.467h1.26zM60.96 51.865v-.832a1.87 1.87 0 01-1.654.916c-1.143 0-1.773-.832-1.773-2.102v-3.449h1.26v3.306c0 .757.32 1.169 1.033 1.169.95 0 1.134-.723 1.134-1.211v-3.264h1.26v5.467h-1.26zM54.291 51.949c-1.646 0-2.46-.96-2.46-2.507v-.622c0-1.548.814-2.507 2.46-2.507 1.655 0 2.462.96 2.462 2.507v.622c0 1.548-.807 2.507-2.462 2.507zm-1.167-2.397c0 .79.294 1.312 1.167 1.312.874 0 1.168-.522 1.168-1.312v-.841c0-.783-.294-1.313-1.168-1.313-.873 0-1.167.53-1.167 1.313v.84zM49.781 48.492c0-.589-.185-1.102-.899-1.102-.848 0-.982.698-.982 1.11v3.364h-1.26v-3.372c0-.589-.185-1.102-.9-1.102-.84 0-.974.698-.974 1.11v3.364h-1.268v-5.466h1.268v.63c.311-.479.765-.715 1.386-.715.79 0 1.277.362 1.52.884.312-.514.824-.884 1.597-.884 1.176 0 1.772.825 1.772 1.969v3.583h-1.26v-3.373zM36.826 51.865l2.167-6.947h1.79l2.175 6.947h-1.386l-.336-1.152H38.54l-.336 1.152h-1.378zm2.041-2.296h2.042l-.958-3.288-.059-.177-.067.177-.958 3.288zM81.197 70.467v11.736H80.5V70.467h.697z"
    fill="#000" />
  <path
    d="M36.8 123.357a5.603 5.603 0 015.6-5.607h214.201c3.093 0 5.6 2.51 5.6 5.607v16.822a5.604 5.604 0 01-5.6 5.607h-214.2a5.604 5.604 0 01-5.6-5.607v-16.822z"
    fill="#fff" />
  <path fill-rule="evenodd" clip-rule="evenodd"
    d="M256.601 118.451h-214.2a4.903 4.903 0 00-4.9 4.906v16.822a4.903 4.903 0 004.9 4.906h214.2c2.706 0 4.9-2.197 4.9-4.906v-16.822a4.903 4.903 0 00-4.9-4.906zm-214.2-.701c-3.093 0-5.6 2.51-5.6 5.607v16.822a5.604 5.604 0 005.6 5.607h214.2c3.093 0 5.6-2.511 5.6-5.607v-16.822a5.603 5.603 0 00-5.6-5.607h-214.2z"
    fill="#E6E3D3" />
  <path
    d="M36.8 179.429a5.604 5.604 0 015.6-5.607h214.201c3.093 0 5.6 2.511 5.6 5.607v16.822a5.603 5.603 0 01-5.6 5.607h-214.2c-3.093 0-5.6-2.51-5.6-5.607v-16.822z"
    fill="#fff" />
  <path fill-rule="evenodd" clip-rule="evenodd"
    d="M256.601 174.523h-214.2a4.903 4.903 0 00-4.9 4.906v16.822a4.903 4.903 0 004.9 4.906h214.2c2.706 0 4.9-2.197 4.9-4.906v-16.822a4.903 4.903 0 00-4.9-4.906zm-214.2-.701a5.604 5.604 0 00-5.6 5.607v16.822a5.603 5.603 0 005.6 5.607h214.2c3.093 0 5.6-2.51 5.6-5.607v-16.822a5.604 5.604 0 00-5.6-5.607h-214.2z"
    fill="#E6E3D3" />
  <path
    d="M61.64 102.471v.664c.252-.378.73-.748 1.553-.748 1.344 0 2.15.942 2.15 2.313v1.059c0 1.287-.797 2.263-2.133 2.263-.798 0-1.285-.353-1.57-.707v2.524H60.37v-7.368h1.268zm0 3.364c.058.614.428 1.102 1.2 1.102.857 0 1.202-.597 1.202-1.287v-.891c0-.682-.345-1.287-1.201-1.287-.765 0-1.143.496-1.202 1.11v1.253zM58.087 107.939v-.833a1.87 1.87 0 01-1.654.917c-1.143 0-1.773-.833-1.773-2.103v-3.448h1.26v3.305c0 .757.32 1.169 1.033 1.169.95 0 1.134-.723 1.134-1.211v-3.263h1.26v5.467h-1.26zM51.418 108.022c-1.646 0-2.461-.959-2.461-2.506v-.623c0-1.547.815-2.506 2.461-2.506 1.655 0 2.461.959 2.461 2.506v.623c0 1.547-.806 2.506-2.46 2.506zm-1.167-2.397c0 .79.294 1.312 1.167 1.312.874 0 1.168-.522 1.168-1.312v-.841c0-.782-.294-1.312-1.168-1.312-.873 0-1.167.53-1.167 1.312v.841zM45.323 102.471v.816c.235-.53.815-.9 1.529-.9.907 0 1.613.513 1.613 1.875v.69H47.17v-.547c0-.647-.227-.942-.79-.942-.797 0-1.058.555-1.058 1.06v3.415h-1.268v-5.467h1.268zM40.06 108.023c-1.874 0-2.89-1.296-2.89-3.028v-1.043c0-1.741 1.008-3.045 3.015-3.045 1.706 0 2.806 1.035 2.898 2.465l.009.336h-1.36l-.01-.496c-.058-.757-.68-1.161-1.52-1.161-1.251 0-1.688.799-1.688 1.741v1.337c0 .968.453 1.75 1.596 1.75.932 0 1.453-.463 1.587-1.228v-.32H39.75v-1.068h3.343v3.676h-.773l-.176-.892c-.42.597-1.092.976-2.084.976zM80.097 190.727c-.403 0-.722-.278-.722-.707 0-.446.32-.723.722-.723.395 0 .706.277.706.723 0 .429-.31.707-.706.707zM77.996 190.727c-.403 0-.723-.278-.723-.707 0-.446.32-.723.723-.723.395 0 .705.277.705.723 0 .429-.31.707-.705.707zM75.894 190.727c-.403 0-.722-.278-.722-.707 0-.446.32-.723.722-.723.395 0 .706.277.706.723 0 .429-.31.707-.706.707zM74.528 185.176v1.093H72.94v2.523c0 .597.143.757.512.757h1.076v1.094h-1.403c-1.126 0-1.437-.564-1.437-1.598v-2.776H70.42v-1.093H71c.646-.051.823-.556.806-1.481h1.26c0 .732-.126 1.371-.546 1.481h2.008zM68.836 187.109c-.033-.462-.344-.933-1.142-.933-.89 0-1.227.53-1.227 1.312v.858c0 .774.336 1.295 1.235 1.295.849 0 1.109-.471 1.143-.934l.016-.361h1.286l-.009.252c-.084 1.178-.84 2.128-2.461 2.128-1.68 0-2.503-.959-2.503-2.506v-.64c0-1.53.823-2.489 2.503-2.489 1.613 0 2.386.95 2.461 2.128l.009.269H68.86l-.025-.379zM59.547 188.22v-.64c0-1.53.823-2.489 2.545-2.489 1.563 0 2.436.891 2.436 2.523v.606h-3.67v.126c0 .774.335 1.295 1.242 1.295.69 0 .95-.311 1.008-.673l.017-.193h1.37l-.009.084c-.1 1.118-.89 1.867-2.394 1.867-1.722 0-2.545-.959-2.545-2.506zm1.319-.917h2.352l-.009-.227c-.1-.581-.487-.9-1.159-.9-.79 0-1.134.454-1.184 1.127zM57.445 183.695h1.269v6.948h-1.269v-6.948zM51.623 188.22v-.64c0-1.53.823-2.489 2.545-2.489 1.563 0 2.436.891 2.436 2.523v.606h-3.67v.126c0 .774.335 1.295 1.243 1.295.688 0 .949-.311 1.008-.673l.016-.193h1.37l-.009.084c-.1 1.118-.89 1.867-2.394 1.867-1.722 0-2.545-.959-2.545-2.506zm1.319-.917h2.352l-.009-.227c-.1-.581-.487-.9-1.159-.9-.79 0-1.134.454-1.184 1.127zM48.343 190.727c-1.966 0-2.831-.816-2.831-2.355v-.202h1.335v.37c0 .774.437 1.068 1.52 1.068.9 0 1.294-.227 1.294-.774v-.151c-.008-.555-.302-.749-1.159-.942l-1.235-.345c-.983-.286-1.604-.833-1.604-1.859 0-1.253.873-1.926 2.562-1.926 1.73 0 2.62.715 2.62 2.019v.244H49.51v-.295c0-.614-.361-.857-1.277-.857-.84 0-1.226.21-1.226.689v.101c0 .471.37.707 1.05.858l1.243.336c1.092.286 1.705.783 1.705 1.935 0 1.455-.798 2.086-2.663 2.086zM80.097 134.655c-.403 0-.722-.277-.722-.706 0-.446.32-.723.722-.723.395 0 .706.277.706.723 0 .429-.31.706-.706.706zM77.996 134.655c-.403 0-.723-.277-.723-.706 0-.446.32-.723.723-.723.395 0 .705.277.705.723 0 .429-.31.706-.705.706zM75.894 134.655c-.403 0-.722-.277-.722-.706 0-.446.32-.723.722-.723.395 0 .706.277.706.723 0 .429-.31.706-.706.706zM74.528 129.104v1.094H72.94v2.523c0 .597.143.757.512.757h1.076v1.093h-1.403c-1.126 0-1.437-.563-1.437-1.598v-2.775H70.42v-1.094H71c.646-.05.823-.555.806-1.48h1.26c0 .732-.126 1.371-.546 1.48h2.008zM68.836 131.038c-.033-.462-.344-.933-1.142-.933-.89 0-1.227.529-1.227 1.312v.857c0 .774.336 1.296 1.235 1.296.849 0 1.109-.471 1.143-.934l.016-.362h1.286l-.009.253c-.084 1.177-.84 2.128-2.461 2.128-1.68 0-2.503-.959-2.503-2.507v-.639c0-1.531.823-2.489 2.503-2.489 1.613 0 2.386.95 2.461 2.127l.009.27H68.86l-.025-.379zM59.547 132.148v-.639c0-1.531.823-2.489 2.545-2.489 1.563 0 2.436.891 2.436 2.523v.605h-3.67v.126c0 .774.335 1.296 1.242 1.296.69 0 .95-.311 1.008-.673l.017-.194h1.37l-.009.085c-.1 1.118-.89 1.867-2.394 1.867-1.722 0-2.545-.959-2.545-2.507zm1.319-.916h2.352l-.009-.228c-.1-.58-.487-.899-1.159-.899-.79 0-1.134.454-1.184 1.127zM57.445 127.624h1.269v6.947h-1.269v-6.947zM51.623 132.148v-.639c0-1.531.823-2.489 2.545-2.489 1.563 0 2.436.891 2.436 2.523v.605h-3.67v.126c0 .774.335 1.296 1.243 1.296.688 0 .949-.311 1.008-.673l.016-.194h1.37l-.009.085c-.1 1.118-.89 1.867-2.394 1.867-1.722 0-2.545-.959-2.545-2.507zm1.319-.916h2.352l-.009-.228c-.1-.58-.487-.899-1.159-.899-.79 0-1.134.454-1.184 1.127zM48.343 134.656c-1.966 0-2.831-.816-2.831-2.355v-.202h1.335v.37c0 .774.437 1.068 1.52 1.068.9 0 1.294-.227 1.294-.774v-.151c-.008-.555-.302-.749-1.159-.942l-1.235-.345c-.983-.286-1.604-.833-1.604-1.859 0-1.253.873-1.926 2.562-1.926 1.73 0 2.62.715 2.62 2.019v.244H49.51v-.295c0-.614-.361-.858-1.277-.858-.84 0-1.226.211-1.226.69v.101c0 .471.37.706 1.05.858l1.243.336c1.092.286 1.705.782 1.705 1.935 0 1.455-.798 2.086-2.663 2.086zM66.734 160.889c1.067.26 1.344.782 1.344 1.497 0 .967-.504 1.707-2.385 1.707-1.823 0-2.478-.656-2.478-1.884v-.202h1.302v.194c0 .631.378.832 1.184.832.84 0 1.075-.21 1.075-.58 0-.328-.226-.488-.772-.656l-1.143-.277c-1.176-.236-1.512-.774-1.512-1.464 0-.858.521-1.598 2.251-1.598 1.781 0 2.352.732 2.352 1.741v.168H66.65v-.16c0-.521-.352-.689-1.058-.689-.52 0-.94.126-.94.479 0 .261.2.404.696.53l1.386.362zM61.166 164.01v-.833a1.87 1.87 0 01-1.655.917c-1.143 0-1.773-.833-1.773-2.103v-3.448h1.26v3.305c0 .757.32 1.169 1.034 1.169.949 0 1.134-.723 1.134-1.211v-3.263h1.26v5.467h-1.26zM56.967 158.543v1.093h-1.588v2.523c0 .598.143.757.513.757h1.075v1.094h-1.403c-1.125 0-1.436-.564-1.436-1.598v-2.776h-1.269v-1.093h.58c.647-.051.823-.555.806-1.481h1.26c0 .732-.126 1.371-.546 1.481h2.008zM51.141 164.009v-.833c-.428.665-1.142.917-1.923.917-1.017 0-1.63-.471-1.63-1.438 0-1.06.916-1.455 1.73-1.674l.597-.151c.73-.185 1.193-.311 1.193-.732v-.042c0-.286-.244-.538-.95-.538-.806 0-1.125.303-1.125.816v.26h-1.269v-.159c0-1.287.815-1.977 2.377-1.977 1.672 0 2.227.723 2.227 1.842v3.709H51.14zm-2.285-1.505c0 .37.244.529.756.529.79 0 1.386-.445 1.495-1.202v-.64c-.126.303-.512.387-.982.539l-.538.143c-.487.143-.73.303-.73.631zM47.047 158.543v1.093H45.46v2.523c0 .598.142.757.512.757h1.075v1.094h-1.403c-1.125 0-1.436-.564-1.436-1.598v-2.776H42.94v-1.093h.58c.646-.051.822-.555.805-1.481h1.26c0 .732-.126 1.371-.546 1.481h2.008zM39.944 164.094c-1.966 0-2.83-.816-2.83-2.355v-.202h1.335v.37c0 .774.437 1.068 1.52 1.068.9 0 1.294-.227 1.294-.773v-.152c-.008-.555-.302-.748-1.16-.942l-1.234-.345c-.983-.286-1.605-.832-1.605-1.858 0-1.254.874-1.926 2.563-1.926 1.73 0 2.62.714 2.62 2.018v.244h-1.335v-.294c0-.614-.361-.858-1.277-.858-.84 0-1.227.21-1.227.689v.101c0 .471.37.707 1.05.858l1.244.337c1.092.286 1.705.782 1.705 1.934 0 1.455-.798 2.086-2.663 2.086zM118.338 23.254c1.156.283 1.456.848 1.456 1.622 0 1.048-.546 1.85-2.584 1.85-1.975 0-2.685-.71-2.685-2.041v-.219h1.411v.21c0 .683.409.902 1.283.902.91 0 1.165-.228 1.165-.629 0-.355-.246-.528-.837-.71l-1.238-.301c-1.274-.255-1.638-.838-1.638-1.586 0-.93.564-1.73 2.439-1.73 1.929 0 2.548.792 2.548 1.885v.182h-1.411v-.173c0-.565-.382-.747-1.146-.747-.565 0-1.02.137-1.02.52 0 .282.219.437.756.573l1.501.392zM106.555 26.636v-7.527h1.61l1.93 4.939 1.929-4.939h1.61v7.527h-1.346V21.86l-1.884 4.775h-.619l-1.884-4.775v4.775h-1.346zM101.027 26.636V25.36h1.52v-4.975h-1.52v-1.276h4.45v1.276h-1.51v4.975h1.51v1.276h-4.45zM97.368 26.726c-2.13 0-3.067-.884-3.067-2.551v-.219h1.447v.401c0 .838.473 1.157 1.647 1.157.974 0 1.401-.246 1.401-.838v-.164c-.009-.602-.327-.811-1.256-1.02l-1.337-.374c-1.065-.31-1.738-.902-1.738-2.014 0-1.357.946-2.086 2.775-2.086 1.875 0 2.839.774 2.839 2.186v.265h-1.447v-.32c0-.665-.39-.929-1.383-.929-.91 0-1.328.228-1.328.748v.109c0 .51.4.765 1.137.93l1.347.364c1.183.31 1.847.847 1.847 2.095 0 1.577-.864 2.26-2.884 2.26zM88.21 24.01v-.692c0-1.658.893-2.697 2.758-2.697 1.693 0 2.64.966 2.64 2.734v.656H89.63v.136c0 .839.365 1.404 1.347 1.404.746 0 1.029-.338 1.092-.73l.019-.209h1.483l-.01.091c-.109 1.212-.964 2.023-2.593 2.023-1.865 0-2.757-1.039-2.757-2.715zm1.43-.993h2.548l-.01-.246c-.109-.628-.527-.974-1.255-.974-.856 0-1.229.491-1.283 1.22zM79.715 24.01v-.692c0-1.658.892-2.697 2.757-2.697 1.693 0 2.64.966 2.64 2.734v.656h-3.978v.136c0 .839.364 1.404 1.347 1.404.746 0 1.029-.338 1.092-.73l.018-.209h1.484l-.01.091c-.109 1.212-.964 2.023-2.593 2.023-1.865 0-2.757-1.039-2.757-2.715zm1.428-.993h2.549l-.01-.246c-.109-.628-.527-.974-1.255-.974-.856 0-1.229.491-1.284 1.22zM77.594 23.254c1.156.283 1.456.848 1.456 1.622 0 1.048-.546 1.85-2.584 1.85-1.975 0-2.685-.71-2.685-2.041v-.219h1.41v.21c0 .683.41.902 1.284.902.91 0 1.165-.228 1.165-.629 0-.355-.246-.528-.838-.71l-1.237-.301c-1.274-.255-1.638-.838-1.638-1.586 0-.93.564-1.73 2.439-1.73 1.929 0 2.548.792 2.548 1.885v.182h-1.41v-.173c0-.565-.383-.747-1.147-.747-.565 0-1.02.137-1.02.52 0 .282.219.437.756.573l1.501.392zM71.64 26.635v-.902c-.464.72-1.237.993-2.084.993-1.1 0-1.765-.51-1.765-1.558 0-1.148.992-1.576 1.875-1.813l.646-.164c.791-.2 1.292-.338 1.292-.793v-.046c0-.31-.264-.583-1.028-.583-.874 0-1.22.328-1.22.884v.282h-1.374v-.173c0-1.394.883-2.14 2.575-2.14 1.811 0 2.412.783 2.412 1.994v4.019H71.64zm-2.475-1.631c0 .4.264.574.82.574.855 0 1.5-.483 1.619-1.303v-.693c-.137.328-.555.42-1.065.584l-.582.154c-.528.155-.792.328-.792.684zM63.28 19.11v2.496c.355-.574.938-.984 1.784-.984 1.238 0 1.92.902 1.92 2.278v3.736H65.62v-3.581c0-.82-.346-1.267-1.12-1.267-.91 0-1.173.61-1.219 1.12v3.728h-1.374v-7.527h1.374zM59.618 22.808c-.036-.501-.373-1.011-1.238-1.011-.964 0-1.328.573-1.328 1.42v.93c0 .839.364 1.404 1.337 1.404.92 0 1.202-.51 1.238-1.012l.018-.392h1.393l-.01.274c-.09 1.275-.91 2.305-2.666 2.305-1.82 0-2.712-1.039-2.712-2.715v-.693c0-1.658.892-2.697 2.712-2.697 1.747 0 2.585 1.03 2.666 2.305l.01.292h-1.393l-.027-.41zM51.716 20.712v.884c.255-.574.883-.975 1.656-.975.983 0 1.747.556 1.747 2.032v.747h-1.401v-.592c0-.702-.246-1.02-.856-1.02-.864 0-1.146.6-1.146 1.147v3.7h-1.374v-5.923h1.374zM47.869 26.634v-.902a2.025 2.025 0 01-1.793.994c-1.237 0-1.92-.902-1.92-2.278v-3.736h1.365v3.58c0 .82.346 1.267 1.12 1.267 1.028 0 1.228-.783 1.228-1.312v-3.535h1.365v5.922h-1.365zM37.459 26.636v-7.527h3.34c1.756 0 2.611.757 2.611 2.479v.09c0 1.705-.81 2.488-2.611 2.488h-1.92v2.47h-1.42zm1.42-3.681h1.947c.819 0 1.128-.328 1.128-1.057v-.547c0-.72-.309-1.039-1.128-1.039h-1.947v2.642zM258.7 18.223l2.1 2.102-2.673 2.677a1.172 1.172 0 000 1.656l2.673 2.676-2.1 2.103-2.673-2.676a1.17 1.17 0 00-1.655 0l-2.672 2.676-2.1-2.103 2.672-2.676c.457-.457.457-1.2 0-1.657l-2.672-2.676 2.1-2.102 2.672 2.676a1.17 1.17 0 001.655 0l2.673-2.676z"
    fill="#000" />
  <g clip-path="url(#clip0_6733_20109)">
    <path
      d="M252.856 74.89v2.313h-2.94a.91.91 0 00-.909.911v2.944h-2.31v-2.944a.911.911 0 00-.91-.911h-2.94V74.89h2.94a.91.91 0 00.91-.911v-2.944h2.31v2.944a.91.91 0 00.909.911h2.94z"
      fill="#000" />
  </g>
  <path fill-rule="evenodd" clip-rule="evenodd"
    d="M64.451 90.415V63.08h.701v27.335h-.7zM233.852 90.415V63.08h.7v27.335h-.7z" fill="#E6E3D3" />
  <path
    d="M250.363 189.38a.874.874 0 01-1.529 0l-1.43-2.576a.877.877 0 01.765-1.302h2.859a.877.877 0 01.765 1.302l-1.43 2.576zM250.363 133.309a.874.874 0 01-1.529 0l-1.43-2.576a.877.877 0 01.765-1.302h2.859a.877.877 0 01.765 1.302l-1.43 2.576zM76.5 80c-.529 0-.98-.136-1.352-.41-.372-.274-.656-.672-.853-1.194-.197-.523-.295-1.155-.295-1.896 0-.736.098-1.365.295-1.886.199-.524.484-.923.857-1.198.374-.277.824-.416 1.348-.416.524 0 .973.139 1.345.416.374.275.66.674.856 1.198.2.52.299 1.15.299 1.886 0 .74-.098 1.373-.295 1.896-.197.522-.481.92-.853 1.195-.372.273-.823.409-1.352.409zm0-.732c.524 0 .932-.24 1.222-.719.29-.479.435-1.162.435-2.049 0-.59-.066-1.092-.2-1.507-.13-.415-.32-.731-.569-.948a1.294 1.294 0 00-.888-.326c-.52 0-.926.243-1.218.728-.293.484-.44 1.168-.44 2.053 0 .59.066 1.091.197 1.504.131.412.32.726.566.941.248.216.546.323.895.323z"
    fill="#000" />
</svg>
