<svg width="30" height="30" viewBox="0 0 30 30" fill="none" xmlns="http://www.w3.org/2000/svg"><g filter="url(#filter0_d_6727_20100)"><path d="M5.043 4.003l7.385 17.935a.878.878 0 001.432.286l4.034-4.034 4.343 4.345a.88.88 0 001.242 0l1.24-1.242a.876.876 0 000-1.241l-4.343-4.344 4.033-4.034a.877.877 0 00-.287-1.432L6.188 2.857a.878.878 0 00-1.145 1.146z" fill="#000"/><path d="M5.043 4.003l7.385 17.935a.878.878 0 001.432.286l4.034-4.034 4.343 4.345a.88.88 0 001.242 0l1.24-1.242a.876.876 0 000-1.241l-4.343-4.344 4.033-4.034a.877.877 0 00-.287-1.432L6.188 2.857a.878.878 0 00-1.145 1.146z" stroke="#FEFDF5" stroke-linecap="round" stroke-linejoin="round"/></g><defs><filter id="filter0_d_6727_20100" x=".477" y=".291" width="29" height="29" filterUnits="userSpaceOnUse" color-interpolation-filters="sRGB"><feFlood flood-opacity="0" result="BackgroundImageFix"/><feColorMatrix in="SourceAlpha" values="0 0 0 0 0 0 0 0 0 0 0 0 0 0 0 0 0 0 127 0" result="hardAlpha"/><feOffset dy="2"/><feGaussianBlur stdDeviation="2"/><feComposite in2="hardAlpha" operator="out"/><feColorMatrix values="0 0 0 0 0 0 0 0 0 0 0 0 0 0 0 0 0 0 0.12 0"/><feBlend in2="BackgroundImageFix" result="effect1_dropShadow_6727_20100"/><feBlend in="SourceGraphic" in2="effect1_dropShadow_6727_20100" result="shape"/></filter></defs></svg>